<?xml version="1.0" encoding="us-ascii" standalone="no"?><svg xmlns="http://www.w3.org/2000/svg" xmlns:xlink="http://www.w3.org/1999/xlink" contentStyleType="text/css" height="427px" preserveAspectRatio="none" style="width:652px;height:427px;background:#FFFFFF;" version="1.1" viewBox="0 0 652 427" width="652px" zoomAndPan="magnify"><defs/><g><rect fill="#FFFFFF" height="212.4609" style="stroke:#181818;stroke-width:1.0;" width="10" x="22.5" y="114.9609"/><rect fill="#FFFFFF" height="30.3516" style="stroke:#181818;stroke-width:1.0;" width="10" x="270.5" y="114.9609"/><rect fill="#FFFFFF" height="151.7578" style="stroke:#181818;stroke-width:1.0;" width="10" x="270.5" y="175.6641"/><rect fill="#FFFFFF" height="91.0547" style="stroke:#181818;stroke-width:1.0;" width="10" x="441.5" y="206.0156"/><rect fill="#FFFFFF" height="30.3516" style="stroke:#181818;stroke-width:1.0;" width="10" x="612.5" y="236.3672"/><line style="stroke:#181818;stroke-width:0.5;stroke-dasharray:5.0,5.0;" x1="27" x2="27" y1="82.6094" y2="345.4219"/><line style="stroke:#181818;stroke-width:0.5;stroke-dasharray:5.0,5.0;" x1="275.5" x2="275.5" y1="82.6094" y2="345.4219"/><line style="stroke:#181818;stroke-width:0.5;stroke-dasharray:5.0,5.0;" x1="446" x2="446" y1="82.6094" y2="345.4219"/><line style="stroke:#181818;stroke-width:0.5;stroke-dasharray:5.0,5.0;" x1="617" x2="617" y1="82.6094" y2="345.4219"/><text fill="#000000" font-family="sans-serif" font-size="14" lengthAdjust="spacing" textLength="39" x="5" y="79.5332">Admin</text><ellipse cx="27.5" cy="13.5" fill="#E2E2F0" rx="8" ry="8" style="stroke:#181818;stroke-width:0.5;"/><path d="M27.5,21.5 L27.5,48.5 M14.5,29.5 L40.5,29.5 M27.5,48.5 L14.5,63.5 M27.5,48.5 L40.5,63.5 " fill="none" style="stroke:#181818;stroke-width:0.5;"/><text fill="#000000" font-family="sans-serif" font-size="14" lengthAdjust="spacing" textLength="39" x="5" y="358.9551">Admin</text><ellipse cx="27.5" cy="370.5313" fill="#E2E2F0" rx="8" ry="8" style="stroke:#181818;stroke-width:0.5;"/><path d="M27.5,378.5313 L27.5,405.5313 M14.5,386.5313 L40.5,386.5313 M27.5,405.5313 L14.5,420.5313 M27.5,405.5313 L40.5,420.5313 " fill="none" style="stroke:#181818;stroke-width:0.5;"/><rect fill="#E2E2F0" height="31.6094" rx="2.5" ry="2.5" style="stroke:#181818;stroke-width:0.5;" width="72" x="239.5" y="50"/><text fill="#000000" font-family="sans-serif" font-size="14" lengthAdjust="spacing" textLength="58" x="246.5" y="71.5332">Frontend</text><rect fill="#E2E2F0" height="31.6094" rx="2.5" ry="2.5" style="stroke:#181818;stroke-width:0.5;" width="72" x="239.5" y="344.4219"/><text fill="#000000" font-family="sans-serif" font-size="14" lengthAdjust="spacing" textLength="58" x="246.5" y="365.9551">Frontend</text><rect fill="#E2E2F0" height="31.6094" rx="2.5" ry="2.5" style="stroke:#181818;stroke-width:0.5;" width="69" x="412" y="50"/><text fill="#000000" font-family="sans-serif" font-size="14" lengthAdjust="spacing" textLength="55" x="419" y="71.5332">Backend</text><rect fill="#E2E2F0" height="31.6094" rx="2.5" ry="2.5" style="stroke:#181818;stroke-width:0.5;" width="69" x="412" y="344.4219"/><text fill="#000000" font-family="sans-serif" font-size="14" lengthAdjust="spacing" textLength="55" x="419" y="365.9551">Backend</text><text fill="#000000" font-family="sans-serif" font-size="14" lengthAdjust="spacing" textLength="61" x="584" y="79.5332">Database</text><path d="M599.5,29 C599.5,19 617.5,19 617.5,19 C617.5,19 635.5,19 635.5,29 L635.5,55 C635.5,65 617.5,65 617.5,65 C617.5,65 599.5,65 599.5,55 L599.5,29 " fill="#E2E2F0" style="stroke:#181818;stroke-width:1.5;"/><path d="M599.5,29 C599.5,39 617.5,39 617.5,39 C617.5,39 635.5,39 635.5,29 " fill="none" style="stroke:#181818;stroke-width:1.5;"/><text fill="#000000" font-family="sans-serif" font-size="14" lengthAdjust="spacing" textLength="61" x="584" y="358.9551">Database</text><path d="M599.5,372.0313 C599.5,362.0313 617.5,362.0313 617.5,362.0313 C617.5,362.0313 635.5,362.0313 635.5,372.0313 L635.5,398.0313 C635.5,408.0313 617.5,408.0313 617.5,408.0313 C617.5,408.0313 599.5,408.0313 599.5,398.0313 L599.5,372.0313 " fill="#E2E2F0" style="stroke:#181818;stroke-width:1.5;"/><path d="M599.5,372.0313 C599.5,382.0313 617.5,382.0313 617.5,382.0313 C617.5,382.0313 635.5,382.0313 635.5,372.0313 " fill="none" style="stroke:#181818;stroke-width:1.5;"/><rect fill="#FFFFFF" height="212.4609" style="stroke:#181818;stroke-width:1.0;" width="10" x="22.5" y="114.9609"/><rect fill="#FFFFFF" height="30.3516" style="stroke:#181818;stroke-width:1.0;" width="10" x="270.5" y="114.9609"/><rect fill="#FFFFFF" height="151.7578" style="stroke:#181818;stroke-width:1.0;" width="10" x="270.5" y="175.6641"/><rect fill="#FFFFFF" height="91.0547" style="stroke:#181818;stroke-width:1.0;" width="10" x="441.5" y="206.0156"/><rect fill="#FFFFFF" height="30.3516" style="stroke:#181818;stroke-width:1.0;" width="10" x="612.5" y="236.3672"/><polygon fill="#181818" points="258.5,110.9609,268.5,114.9609,258.5,118.9609,262.5,114.9609" style="stroke:#181818;stroke-width:1.0;"/><line style="stroke:#181818;stroke-width:1.0;" x1="32.5" x2="264.5" y1="114.9609" y2="114.9609"/><text fill="#000000" font-family="sans-serif" font-size="13" lengthAdjust="spacing" textLength="120" x="39.5" y="110.1045">List Operation Types</text><polygon fill="#181818" points="43.5,141.3125,33.5,145.3125,43.5,149.3125,39.5,145.3125" style="stroke:#181818;stroke-width:1.0;"/><line style="stroke:#181818;stroke-width:1.0;" x1="37.5" x2="274.5" y1="145.3125" y2="145.3125"/><text fill="#000000" font-family="sans-serif" font-size="13" lengthAdjust="spacing" textLength="214" x="49.5" y="140.4561">Displays Filters and Operation Types</text><polygon fill="#181818" points="258.5,171.6641,268.5,175.6641,258.5,179.6641,262.5,175.6641" style="stroke:#181818;stroke-width:1.0;"/><line style="stroke:#181818;stroke-width:1.0;" x1="32.5" x2="264.5" y1="175.6641" y2="175.6641"/><text fill="#000000" font-family="sans-serif" font-size="13" lengthAdjust="spacing" textLength="84" x="39.5" y="170.8076">Selects Filters</text><polygon fill="#181818" points="429.5,202.0156,439.5,206.0156,429.5,210.0156,433.5,206.0156" style="stroke:#181818;stroke-width:1.0;"/><line style="stroke:#181818;stroke-width:1.0;stroke-dasharray:2.0,2.0;" x1="280.5" x2="435.5" y1="206.0156" y2="206.0156"/><text fill="#000000" font-family="sans-serif" font-size="13" lengthAdjust="spacing" textLength="120" x="287.5" y="201.1592">List Operation Types</text><polygon fill="#181818" points="600.5,232.3672,610.5,236.3672,600.5,240.3672,604.5,236.3672" style="stroke:#181818;stroke-width:1.0;"/><line style="stroke:#181818;stroke-width:1.0;" x1="451.5" x2="606.5" y1="236.3672" y2="236.3672"/><text fill="#000000" font-family="sans-serif" font-size="13" lengthAdjust="spacing" textLength="120" x="458.5" y="231.5107">Get Operation Types</text><polygon fill="#181818" points="462.5,262.7188,452.5,266.7188,462.5,270.7188,458.5,266.7188" style="stroke:#181818;stroke-width:1.0;"/><line style="stroke:#181818;stroke-width:1.0;stroke-dasharray:2.0,2.0;" x1="456.5" x2="616.5" y1="266.7188" y2="266.7188"/><text fill="#000000" font-family="sans-serif" font-size="13" lengthAdjust="spacing" textLength="137" x="468.5" y="261.8623">Return Operation Types</text><polygon fill="#181818" points="291.5,293.0703,281.5,297.0703,291.5,301.0703,287.5,297.0703" style="stroke:#181818;stroke-width:1.0;"/><line style="stroke:#181818;stroke-width:1.0;stroke-dasharray:2.0,2.0;" x1="285.5" x2="445.5" y1="297.0703" y2="297.0703"/><text fill="#000000" font-family="sans-serif" font-size="13" lengthAdjust="spacing" textLength="137" x="297.5" y="292.2139">Return Operation Types</text><polygon fill="#181818" points="38.5,323.4219,28.5,327.4219,38.5,331.4219,34.5,327.4219" style="stroke:#181818;stroke-width:1.0;"/><line style="stroke:#181818;stroke-width:1.0;stroke-dasharray:2.0,2.0;" x1="32.5" x2="274.5" y1="327.4219" y2="327.4219"/><text fill="#000000" font-family="sans-serif" font-size="13" lengthAdjust="spacing" textLength="149" x="44.5" y="322.5654">Displays Operation Types</text><!--SRC=[XL1Dgi8m4DxFAORklS1R217nRHu8wWMcoIm6-zAGZ8gtDrEqj2Xsb_3z3tdjCxhmBn6fe8D4MSLBegZOx78VbMDe3BjnEqStvCyla9908AMM2cEpVRu6ABG03bThCy0V_9EYk4-SIQMFUBedBa1UvKhAjS3uj3mmJPMwAjnAIHtT2-waKyurCuOtey1p_IJuo1rx7UMVWYgt3baiQMF1Y9KVpFgNlx1jVvYQ7rWlENwhRfB1Voo_h1bAlLRCxhLmeydN0Jm0]--></g></svg>