<?xml version="1.0" encoding="us-ascii" standalone="no"?><svg xmlns="http://www.w3.org/2000/svg" xmlns:xlink="http://www.w3.org/1999/xlink" contentStyleType="text/css" height="503px" preserveAspectRatio="none" style="width:895px;height:503px;background:#FFFFFF;" version="1.1" viewBox="0 0 895 503" width="895px" zoomAndPan="magnify"><defs/><g><rect fill="#FFFFFF" height="319.5156" style="stroke:#181818;stroke-width:1.0;" width="10" x="22.5" y="92.6094"/><rect fill="#FFFFFF" height="288.1641" style="stroke:#181818;stroke-width:1.0;" width="10" x="201.5" y="114.9609"/><rect fill="#FFFFFF" height="227.4609" style="stroke:#181818;stroke-width:1.0;" width="10" x="409" y="145.3125"/><rect fill="#FFFFFF" height="91.0547" style="stroke:#181818;stroke-width:1.0;" width="10" x="637" y="175.6641"/><rect fill="#FFFFFF" height="30.3516" style="stroke:#181818;stroke-width:1.0;" width="10" x="827" y="206.0156"/><rect fill="none" height="61.7031" style="stroke:#000000;stroke-width:1.5;" width="260" x="309" y="281.7188"/><line style="stroke:#181818;stroke-width:0.5;stroke-dasharray:5.0,5.0;" x1="27" x2="27" y1="82.6094" y2="421.125"/><line style="stroke:#181818;stroke-width:0.5;stroke-dasharray:5.0,5.0;" x1="206" x2="206" y1="82.6094" y2="421.125"/><line style="stroke:#181818;stroke-width:0.5;stroke-dasharray:5.0,5.0;" x1="414" x2="414" y1="82.6094" y2="421.125"/><line style="stroke:#181818;stroke-width:0.5;stroke-dasharray:5.0,5.0;" x1="642" x2="642" y1="82.6094" y2="421.125"/><line style="stroke:#181818;stroke-width:0.5;stroke-dasharray:5.0,5.0;" x1="832" x2="832" y1="82.6094" y2="421.125"/><text fill="#000000" font-family="sans-serif" font-size="14" lengthAdjust="spacing" textLength="39" x="5" y="79.5332">Admin</text><ellipse cx="27.5" cy="13.5" fill="#E2E2F0" rx="8" ry="8" style="stroke:#181818;stroke-width:0.5;"/><path d="M27.5,21.5 L27.5,48.5 M14.5,29.5 L40.5,29.5 M27.5,48.5 L14.5,63.5 M27.5,48.5 L40.5,63.5 " fill="none" style="stroke:#181818;stroke-width:0.5;"/><text fill="#000000" font-family="sans-serif" font-size="14" lengthAdjust="spacing" textLength="39" x="5" y="434.6582">Admin</text><ellipse cx="27.5" cy="446.2344" fill="#E2E2F0" rx="8" ry="8" style="stroke:#181818;stroke-width:0.5;"/><path d="M27.5,454.2344 L27.5,481.2344 M14.5,462.2344 L40.5,462.2344 M27.5,481.2344 L14.5,496.2344 M27.5,481.2344 L40.5,496.2344 " fill="none" style="stroke:#181818;stroke-width:0.5;"/><rect fill="#E2E2F0" height="49.2188" rx="2.5" ry="2.5" style="stroke:#181818;stroke-width:0.5;" width="205" x="104" y="32.3906"/><text fill="#000000" font-family="sans-serif" font-size="14" lengthAdjust="spacing" textLength="86" x="163.5" y="53.9238">&#171;component&#187;</text><text fill="#000000" font-family="sans-serif" font-size="14" lengthAdjust="spacing" textLength="191" x="111" y="71.5332">operationtype.component.html</text><rect fill="#E2E2F0" height="49.2188" rx="2.5" ry="2.5" style="stroke:#181818;stroke-width:0.5;" width="205" x="104" y="420.125"/><text fill="#000000" font-family="sans-serif" font-size="14" lengthAdjust="spacing" textLength="86" x="163.5" y="441.6582">&#171;component&#187;</text><text fill="#000000" font-family="sans-serif" font-size="14" lengthAdjust="spacing" textLength="191" x="111" y="459.2676">operationtype.component.html</text><rect fill="#E2E2F0" height="49.2188" rx="2.5" ry="2.5" style="stroke:#181818;stroke-width:0.5;" width="190" x="319" y="32.3906"/><text fill="#000000" font-family="sans-serif" font-size="14" lengthAdjust="spacing" textLength="86" x="371" y="53.9238">&#171;component&#187;</text><text fill="#000000" font-family="sans-serif" font-size="14" lengthAdjust="spacing" textLength="176" x="326" y="71.5332">operationtype.component.ts</text><rect fill="#E2E2F0" height="49.2188" rx="2.5" ry="2.5" style="stroke:#181818;stroke-width:0.5;" width="190" x="319" y="420.125"/><text fill="#000000" font-family="sans-serif" font-size="14" lengthAdjust="spacing" textLength="86" x="371" y="441.6582">&#171;component&#187;</text><text fill="#000000" font-family="sans-serif" font-size="14" lengthAdjust="spacing" textLength="176" x="326" y="459.2676">operationtype.component.ts</text><rect fill="#E2E2F0" height="49.2188" rx="2.5" ry="2.5" style="stroke:#181818;stroke-width:0.5;" width="246" x="519" y="32.3906"/><text fill="#000000" font-family="sans-serif" font-size="14" lengthAdjust="spacing" textLength="86" x="599" y="53.9238">&#171;component&#187;</text><text fill="#000000" font-family="sans-serif" font-size="14" lengthAdjust="spacing" textLength="232" x="526" y="71.5332">operationtype.component.servcice.ts</text><rect fill="#E2E2F0" height="49.2188" rx="2.5" ry="2.5" style="stroke:#181818;stroke-width:0.5;" width="246" x="519" y="420.125"/><text fill="#000000" font-family="sans-serif" font-size="14" lengthAdjust="spacing" textLength="86" x="599" y="441.6582">&#171;component&#187;</text><text fill="#000000" font-family="sans-serif" font-size="14" lengthAdjust="spacing" textLength="232" x="526" y="459.2676">operationtype.component.servcice.ts</text><rect fill="#E2E2F0" height="66.8281" rx="2.5" ry="2.5" style="stroke:#181818;stroke-width:0.5;" width="114" x="775" y="14.7813"/><text fill="#000000" font-family="sans-serif" font-size="14" lengthAdjust="spacing" textLength="86" x="789" y="36.3145">&#171;component&#187;</text><text fill="#000000" font-family="sans-serif" font-size="14" lengthAdjust="spacing" textLength="100" x="782" y="53.9238">&#171;C4 Container&#187;</text><text fill="#000000" font-family="sans-serif" font-size="14" lengthAdjust="spacing" textLength="55" x="804.5" y="71.5332">Backend</text><rect fill="#E2E2F0" height="66.8281" rx="2.5" ry="2.5" style="stroke:#181818;stroke-width:0.5;" width="114" x="775" y="420.125"/><text fill="#000000" font-family="sans-serif" font-size="14" lengthAdjust="spacing" textLength="86" x="789" y="441.6582">&#171;component&#187;</text><text fill="#000000" font-family="sans-serif" font-size="14" lengthAdjust="spacing" textLength="100" x="782" y="459.2676">&#171;C4 Container&#187;</text><text fill="#000000" font-family="sans-serif" font-size="14" lengthAdjust="spacing" textLength="55" x="804.5" y="476.877">Backend</text><rect fill="#FFFFFF" height="319.5156" style="stroke:#181818;stroke-width:1.0;" width="10" x="22.5" y="92.6094"/><rect fill="#FFFFFF" height="288.1641" style="stroke:#181818;stroke-width:1.0;" width="10" x="201.5" y="114.9609"/><rect fill="#FFFFFF" height="227.4609" style="stroke:#181818;stroke-width:1.0;" width="10" x="409" y="145.3125"/><rect fill="#FFFFFF" height="91.0547" style="stroke:#181818;stroke-width:1.0;" width="10" x="637" y="175.6641"/><rect fill="#FFFFFF" height="30.3516" style="stroke:#181818;stroke-width:1.0;" width="10" x="827" y="206.0156"/><polygon fill="#181818" points="189.5,110.9609,199.5,114.9609,189.5,118.9609,193.5,114.9609" style="stroke:#181818;stroke-width:1.0;"/><line style="stroke:#181818;stroke-width:1.0;" x1="32.5" x2="195.5" y1="114.9609" y2="114.9609"/><text fill="#000000" font-family="sans-serif" font-size="13" lengthAdjust="spacing" textLength="150" x="39.5" y="110.1045">request operation type list</text><polygon fill="#181818" points="397,141.3125,407,145.3125,397,149.3125,401,145.3125" style="stroke:#181818;stroke-width:1.0;"/><line style="stroke:#181818;stroke-width:1.0;" x1="211.5" x2="403" y1="145.3125" y2="145.3125"/><text fill="#000000" font-family="sans-serif" font-size="13" lengthAdjust="spacing" textLength="150" x="218.5" y="140.4561">request operation type list</text><polygon fill="#181818" points="625,171.6641,635,175.6641,625,179.6641,629,175.6641" style="stroke:#181818;stroke-width:1.0;"/><line style="stroke:#181818;stroke-width:1.0;" x1="419" x2="631" y1="175.6641" y2="175.6641"/><text fill="#000000" font-family="sans-serif" font-size="13" lengthAdjust="spacing" textLength="150" x="426" y="170.8076">request operation type list</text><polygon fill="#181818" points="815,202.0156,825,206.0156,815,210.0156,819,206.0156" style="stroke:#181818;stroke-width:1.0;"/><line style="stroke:#181818;stroke-width:1.0;" x1="647" x2="821" y1="206.0156" y2="206.0156"/><text fill="#000000" font-family="sans-serif" font-size="13" lengthAdjust="spacing" textLength="150" x="654" y="201.1592">request operation type list</text><polygon fill="#181818" points="658,232.3672,648,236.3672,658,240.3672,654,236.3672" style="stroke:#181818;stroke-width:1.0;"/><line style="stroke:#181818;stroke-width:1.0;stroke-dasharray:2.0,2.0;" x1="652" x2="831" y1="236.3672" y2="236.3672"/><text fill="#000000" font-family="sans-serif" font-size="13" lengthAdjust="spacing" textLength="103" x="664" y="231.5107">operation type list</text><polygon fill="#181818" points="430,262.7188,420,266.7188,430,270.7188,426,266.7188" style="stroke:#181818;stroke-width:1.0;"/><line style="stroke:#181818;stroke-width:1.0;stroke-dasharray:2.0,2.0;" x1="424" x2="641" y1="266.7188" y2="266.7188"/><text fill="#000000" font-family="sans-serif" font-size="13" lengthAdjust="spacing" textLength="103" x="436" y="261.8623">operation type list</text><path d="M309,281.7188 L370,281.7188 L370,290.0703 L360,300.0703 L309,300.0703 L309,281.7188 " fill="#EEEEEE" style="stroke:#000000;stroke-width:1.5;"/><rect fill="none" height="61.7031" style="stroke:#000000;stroke-width:1.5;" width="260" x="309" y="281.7188"/><text fill="#000000" font-family="sans-serif" font-size="13" font-weight="bold" lengthAdjust="spacing" textLength="16" x="324" y="296.2139">alt</text><text fill="#000000" font-family="sans-serif" font-size="11" font-weight="bold" lengthAdjust="spacing" textLength="115" x="385" y="295.1377">[Filters are selected]</text><line style="stroke:#181818;stroke-width:1.0;" x1="419" x2="461" y1="322.4219" y2="322.4219"/><line style="stroke:#181818;stroke-width:1.0;" x1="461" x2="461" y1="322.4219" y2="335.4219"/><line style="stroke:#181818;stroke-width:1.0;" x1="420" x2="461" y1="335.4219" y2="335.4219"/><polygon fill="#181818" points="430,331.4219,420,335.4219,430,339.4219,426,335.4219" style="stroke:#181818;stroke-width:1.0;"/><text fill="#000000" font-family="sans-serif" font-size="13" lengthAdjust="spacing" textLength="131" x="426" y="317.5654">filter operation type list</text><polygon fill="#181818" points="222.5,368.7734,212.5,372.7734,222.5,376.7734,218.5,372.7734" style="stroke:#181818;stroke-width:1.0;"/><line style="stroke:#181818;stroke-width:1.0;stroke-dasharray:2.0,2.0;" x1="216.5" x2="413" y1="372.7734" y2="372.7734"/><text fill="#000000" font-family="sans-serif" font-size="13" lengthAdjust="spacing" textLength="103" x="228.5" y="367.917">operation type list</text><polygon fill="#181818" points="43.5,399.125,33.5,403.125,43.5,407.125,39.5,403.125" style="stroke:#181818;stroke-width:1.0;"/><line style="stroke:#181818;stroke-width:1.0;stroke-dasharray:2.0,2.0;" x1="37.5" x2="205.5" y1="403.125" y2="403.125"/><text fill="#000000" font-family="sans-serif" font-size="13" lengthAdjust="spacing" textLength="103" x="49.5" y="398.2686">operation type list</text><!--SRC=[dP71RiCW38RlUGghz_QqKnL5IYljANRnYAkY4M3OgxIt7wOahRIgYNe137o__Tje92JeXz5wG8Q-YPZ46XlH2spQreGn1azUkkx3XqW9nGOllv5syzFkBAFRAAw7bnI42o_y4isKBiOQccGqpk5JhROzli4nIw7rbFJcWEQB_50KFg_dfa4Zze92kJCzRBlYS0-9ld-81UQ2G2i2PrbkH6c6Bie9hwHo2uILg2PMOfFbkgj0zR1IO79STzZUb_287EWVEoUlXXUmgMPq0k_M2IK6J7hlo0WDjH5vtSEfl3zKrCpwSvxEGjhSuUjKCj0l_YvJRFu0]--></g></svg>