<?xml version="1.0" encoding="us-ascii" standalone="no"?><svg xmlns="http://www.w3.org/2000/svg" xmlns:xlink="http://www.w3.org/1999/xlink" contentStyleType="text/css" height="294px" preserveAspectRatio="none" style="width:288px;height:294px;background:#FFFFFF;" version="1.1" viewBox="0 0 288 294" width="288px" zoomAndPan="magnify"><defs/><g><rect fill="#FFFFFF" height="79.4063" style="stroke:#181818;stroke-width:1.0;" width="10" x="22.5" y="114.9609"/><rect fill="#FFFFFF" height="79.4063" style="stroke:#181818;stroke-width:1.0;" width="10" x="211.5" y="114.9609"/><line style="stroke:#181818;stroke-width:0.5;stroke-dasharray:5.0,5.0;" x1="27" x2="27" y1="82.6094" y2="212.3672"/><line style="stroke:#181818;stroke-width:0.5;stroke-dasharray:5.0,5.0;" x1="216.5" x2="216.5" y1="82.6094" y2="212.3672"/><text fill="#000000" font-family="sans-serif" font-size="14" lengthAdjust="spacing" textLength="39" x="5" y="79.5332">Admin</text><ellipse cx="27.5" cy="13.5" fill="#E2E2F0" rx="8" ry="8" style="stroke:#181818;stroke-width:0.5;"/><path d="M27.5,21.5 L27.5,48.5 M14.5,29.5 L40.5,29.5 M27.5,48.5 L14.5,63.5 M27.5,48.5 L40.5,63.5 " fill="none" style="stroke:#181818;stroke-width:0.5;"/><text fill="#000000" font-family="sans-serif" font-size="14" lengthAdjust="spacing" textLength="39" x="5" y="225.9004">Admin</text><ellipse cx="27.5" cy="237.4766" fill="#E2E2F0" rx="8" ry="8" style="stroke:#181818;stroke-width:0.5;"/><path d="M27.5,245.4766 L27.5,272.4766 M14.5,253.4766 L40.5,253.4766 M27.5,272.4766 L14.5,287.4766 M27.5,272.4766 L40.5,287.4766 " fill="none" style="stroke:#181818;stroke-width:0.5;"/><rect fill="#E2E2F0" height="49.2188" rx="2.5" ry="2.5" style="stroke:#181818;stroke-width:0.5;" width="132" x="150.5" y="32.3906"/><text fill="#000000" font-family="sans-serif" font-size="14" lengthAdjust="spacing" textLength="60" x="186.5" y="53.9238">&#171;system&#187;</text><text fill="#000000" font-family="sans-serif" font-size="14" lengthAdjust="spacing" textLength="118" x="157.5" y="71.5332">Healthcare System</text><rect fill="#E2E2F0" height="49.2188" rx="2.5" ry="2.5" style="stroke:#181818;stroke-width:0.5;" width="132" x="150.5" y="211.3672"/><text fill="#000000" font-family="sans-serif" font-size="14" lengthAdjust="spacing" textLength="60" x="186.5" y="232.9004">&#171;system&#187;</text><text fill="#000000" font-family="sans-serif" font-size="14" lengthAdjust="spacing" textLength="118" x="157.5" y="250.5098">Healthcare System</text><rect fill="#FFFFFF" height="79.4063" style="stroke:#181818;stroke-width:1.0;" width="10" x="22.5" y="114.9609"/><rect fill="#FFFFFF" height="79.4063" style="stroke:#181818;stroke-width:1.0;" width="10" x="211.5" y="114.9609"/><polygon fill="#181818" points="199.5,110.9609,209.5,114.9609,199.5,118.9609,203.5,114.9609" style="stroke:#181818;stroke-width:1.0;"/><line style="stroke:#181818;stroke-width:1.0;" x1="32.5" x2="205.5" y1="114.9609" y2="114.9609"/><text fill="#000000" font-family="sans-serif" font-size="13" lengthAdjust="spacing" textLength="165" x="39.5" y="110.1045">List/Search Operation Types</text><polygon fill="#181818" points="38.5,190.3672,28.5,194.3672,38.5,198.3672,34.5,194.3672" style="stroke:#181818;stroke-width:1.0;"/><line style="stroke:#181818;stroke-width:1.0;" x1="32.5" x2="215.5" y1="194.3672" y2="194.3672"/><text fill="#000000" font-family="sans-serif" font-size="13" lengthAdjust="spacing" textLength="4" x="44.5" y="140.4561">&#160;</text><text fill="#000000" font-family="sans-serif" font-size="13" lengthAdjust="spacing" textLength="4" x="44.5" y="156.8076">&#160;</text><text fill="#000000" font-family="sans-serif" font-size="13" lengthAdjust="spacing" textLength="4" x="44.5" y="173.1592">&#160;</text><text fill="#000000" font-family="sans-serif" font-size="13" lengthAdjust="spacing" textLength="149" x="44.5" y="189.5107">Displays Operation Types</text><!--SRC=[PSqn2iCm30NGtQSGsKlt4Wo63XqA7TGnYt044IIEiKJ1ju_TeGIA5dt1-w9eUu4mRvA058BBL4oYP4e6mpXgLUFD-oazc5PR8XK6_1w73j2v01SF23TuYjeLcKfSu9MvaCcUu5qpgwDeyY7Zzk6tDelTXcQdrESkcbUg-iTdFXMS0he3]--></g></svg>