<?xml version="1.0" encoding="us-ascii" standalone="no"?><svg xmlns="http://www.w3.org/2000/svg" xmlns:xlink="http://www.w3.org/1999/xlink" contentStyleType="text/css" height="453px" preserveAspectRatio="none" style="width:816px;height:453px;background:#FFFFFF;" version="1.1" viewBox="0 0 816 453" width="816px" zoomAndPan="magnify"><defs/><g><rect fill="#FFFFFF" height="238.1094" style="stroke:#181818;stroke-width:1.0;" width="10" x="22.5" y="114.9609"/><rect fill="#FFFFFF" height="238.1094" style="stroke:#181818;stroke-width:1.0;" width="10" x="286.5" y="114.9609"/><rect fill="#FFFFFF" height="177.4063" style="stroke:#181818;stroke-width:1.0;" width="10" x="555.5" y="145.3125"/><rect fill="#FFFFFF" height="30" style="stroke:#181818;stroke-width:1.0;" width="10" x="776.5" y="219.0156"/><line style="stroke:#181818;stroke-width:0.5;stroke-dasharray:5.0,5.0;" x1="27" x2="27" y1="82.6094" y2="371.0703"/><line style="stroke:#181818;stroke-width:0.5;stroke-dasharray:5.0,5.0;" x1="291" x2="291" y1="82.6094" y2="371.0703"/><line style="stroke:#181818;stroke-width:0.5;stroke-dasharray:5.0,5.0;" x1="560.5" x2="560.5" y1="82.6094" y2="371.0703"/><line style="stroke:#181818;stroke-width:0.5;stroke-dasharray:5.0,5.0;" x1="781" x2="781" y1="82.6094" y2="371.0703"/><text fill="#000000" font-family="sans-serif" font-size="14" lengthAdjust="spacing" textLength="39" x="5" y="79.5332">Admin</text><ellipse cx="27.5" cy="13.5" fill="#E2E2F0" rx="8" ry="8" style="stroke:#181818;stroke-width:0.5;"/><path d="M27.5,21.5 L27.5,48.5 M14.5,29.5 L40.5,29.5 M27.5,48.5 L14.5,63.5 M27.5,48.5 L40.5,63.5 " fill="none" style="stroke:#181818;stroke-width:0.5;"/><text fill="#000000" font-family="sans-serif" font-size="14" lengthAdjust="spacing" textLength="39" x="5" y="384.6035">Admin</text><ellipse cx="27.5" cy="396.1797" fill="#E2E2F0" rx="8" ry="8" style="stroke:#181818;stroke-width:0.5;"/><path d="M27.5,404.1797 L27.5,431.1797 M14.5,412.1797 L40.5,412.1797 M27.5,431.1797 L14.5,446.1797 M27.5,431.1797 L40.5,446.1797 " fill="none" style="stroke:#181818;stroke-width:0.5;"/><rect fill="#E2E2F0" height="31.6094" rx="2.5" ry="2.5" style="stroke:#181818;stroke-width:0.5;" width="73" x="255" y="50"/><text fill="#000000" font-family="sans-serif" font-size="14" lengthAdjust="spacing" textLength="59" x="262" y="71.5332">FrontEnd</text><rect fill="#E2E2F0" height="31.6094" rx="2.5" ry="2.5" style="stroke:#181818;stroke-width:0.5;" width="73" x="255" y="370.0703"/><text fill="#000000" font-family="sans-serif" font-size="14" lengthAdjust="spacing" textLength="59" x="262" y="391.6035">FrontEnd</text><rect fill="#E2E2F0" height="31.6094" rx="2.5" ry="2.5" style="stroke:#181818;stroke-width:0.5;" width="104" x="508.5" y="50"/><text fill="#000000" font-family="sans-serif" font-size="14" lengthAdjust="spacing" textLength="90" x="515.5" y="71.5332">Backoffice API</text><rect fill="#E2E2F0" height="31.6094" rx="2.5" ry="2.5" style="stroke:#181818;stroke-width:0.5;" width="104" x="508.5" y="370.0703"/><text fill="#000000" font-family="sans-serif" font-size="14" lengthAdjust="spacing" textLength="90" x="515.5" y="391.6035">Backoffice API</text><text fill="#000000" font-family="sans-serif" font-size="14" lengthAdjust="spacing" textLength="61" x="748" y="79.5332">Database</text><path d="M763.5,29 C763.5,19 781.5,19 781.5,19 C781.5,19 799.5,19 799.5,29 L799.5,55 C799.5,65 781.5,65 781.5,65 C781.5,65 763.5,65 763.5,55 L763.5,29 " fill="#E2E2F0" style="stroke:#181818;stroke-width:1.5;"/><path d="M763.5,29 C763.5,39 781.5,39 781.5,39 C781.5,39 799.5,39 799.5,29 " fill="none" style="stroke:#181818;stroke-width:1.5;"/><text fill="#000000" font-family="sans-serif" font-size="14" lengthAdjust="spacing" textLength="61" x="748" y="384.6035">Database</text><path d="M763.5,397.6797 C763.5,387.6797 781.5,387.6797 781.5,387.6797 C781.5,387.6797 799.5,387.6797 799.5,397.6797 L799.5,423.6797 C799.5,433.6797 781.5,433.6797 781.5,433.6797 C781.5,433.6797 763.5,433.6797 763.5,423.6797 L763.5,397.6797 " fill="#E2E2F0" style="stroke:#181818;stroke-width:1.5;"/><path d="M763.5,397.6797 C763.5,407.6797 781.5,407.6797 781.5,407.6797 C781.5,407.6797 799.5,407.6797 799.5,397.6797 " fill="none" style="stroke:#181818;stroke-width:1.5;"/><rect fill="#FFFFFF" height="238.1094" style="stroke:#181818;stroke-width:1.0;" width="10" x="22.5" y="114.9609"/><rect fill="#FFFFFF" height="238.1094" style="stroke:#181818;stroke-width:1.0;" width="10" x="286.5" y="114.9609"/><rect fill="#FFFFFF" height="177.4063" style="stroke:#181818;stroke-width:1.0;" width="10" x="555.5" y="145.3125"/><rect fill="#FFFFFF" height="30" style="stroke:#181818;stroke-width:1.0;" width="10" x="776.5" y="219.0156"/><polygon fill="#181818" points="274.5,110.9609,284.5,114.9609,274.5,118.9609,278.5,114.9609" style="stroke:#181818;stroke-width:1.0;"/><line style="stroke:#181818;stroke-width:1.0;" x1="32.5" x2="280.5" y1="114.9609" y2="114.9609"/><text fill="#000000" font-family="sans-serif" font-size="13" lengthAdjust="spacing" textLength="240" x="39.5" y="110.1045">Creates Operation Type with its attributes</text><polygon fill="#181818" points="543.5,141.3125,553.5,145.3125,543.5,149.3125,547.5,145.3125" style="stroke:#181818;stroke-width:1.0;"/><line style="stroke:#181818;stroke-width:1.0;" x1="296.5" x2="549.5" y1="145.3125" y2="145.3125"/><text fill="#000000" font-family="sans-serif" font-size="13" lengthAdjust="spacing" textLength="240" x="303.5" y="140.4561">Creates Operation Type with its attributes</text><line style="stroke:#181818;stroke-width:1.0;" x1="565.5" x2="607.5" y1="175.6641" y2="175.6641"/><line style="stroke:#181818;stroke-width:1.0;" x1="607.5" x2="607.5" y1="175.6641" y2="188.6641"/><line style="stroke:#181818;stroke-width:1.0;" x1="566.5" x2="607.5" y1="188.6641" y2="188.6641"/><polygon fill="#181818" points="576.5,184.6641,566.5,188.6641,576.5,192.6641,572.5,188.6641" style="stroke:#181818;stroke-width:1.0;"/><text fill="#000000" font-family="sans-serif" font-size="13" lengthAdjust="spacing" textLength="197" x="572.5" y="170.8076">Validate Operation Type attributes</text><polygon fill="#181818" points="764.5,215.0156,774.5,219.0156,764.5,223.0156,768.5,219.0156" style="stroke:#181818;stroke-width:1.0;"/><line style="stroke:#181818;stroke-width:1.0;" x1="565.5" x2="770.5" y1="219.0156" y2="219.0156"/><text fill="#000000" font-family="sans-serif" font-size="13" lengthAdjust="spacing" textLength="149" x="572.5" y="214.1592">Save New Operation Type</text><line style="stroke:#181818;stroke-width:1.0;" x1="565.5" x2="607.5" y1="279.3672" y2="279.3672"/><line style="stroke:#181818;stroke-width:1.0;" x1="607.5" x2="607.5" y1="279.3672" y2="292.3672"/><line style="stroke:#181818;stroke-width:1.0;" x1="566.5" x2="607.5" y1="292.3672" y2="292.3672"/><polygon fill="#181818" points="576.5,288.3672,566.5,292.3672,576.5,296.3672,572.5,292.3672" style="stroke:#181818;stroke-width:1.0;"/><text fill="#000000" font-family="sans-serif" font-size="13" lengthAdjust="spacing" textLength="163" x="572.5" y="274.5107">Log Operation Type creation</text><polygon fill="#181818" points="307.5,318.7188,297.5,322.7188,307.5,326.7188,303.5,322.7188" style="stroke:#181818;stroke-width:1.0;"/><line style="stroke:#181818;stroke-width:1.0;" x1="301.5" x2="559.5" y1="322.7188" y2="322.7188"/><text fill="#000000" font-family="sans-serif" font-size="13" lengthAdjust="spacing" textLength="114" x="313.5" y="317.8623">Return Confirmation</text><polygon fill="#181818" points="38.5,349.0703,28.5,353.0703,38.5,357.0703,34.5,353.0703" style="stroke:#181818;stroke-width:1.0;"/><line style="stroke:#181818;stroke-width:1.0;" x1="32.5" x2="290.5" y1="353.0703" y2="353.0703"/><text fill="#000000" font-family="sans-serif" font-size="13" lengthAdjust="spacing" textLength="114" x="44.5" y="348.2139">Return Confirmation</text><!--SRC=[dP31Ri8m38RlUGghTrvWXqa1DcaIOWWGTpTnDukHHAcXuks9AMEbbqdSRFdtz_itEeaPh3zm06p1ceHPs772852zvnZaBVXAPntLZzCfkdri6dO4TlLnrM1Yur6mnfQWcj-gwyZNnbYOl2e7Nc2M2OLQ-4oKKJW6s9uJGSVo3Io599AvFXQ9GITyAk9otRtKOuoI2h2OFWdKSusktoax_66len5ckDthlQROu8bWITr8_kTGKdiQTWzkY_WrDd8QetI_mlvRQv9Z3Z2BeU5yw0K3hkQuFSF-hzRV3LfhBW00]--></g></svg>