<?xml version="1.0" encoding="us-ascii" standalone="no"?><svg xmlns="http://www.w3.org/2000/svg" xmlns:xlink="http://www.w3.org/1999/xlink" contentStyleType="text/css" height="557px" preserveAspectRatio="none" style="width:1360px;height:557px;background:#FFFFFF;" version="1.1" viewBox="0 0 1360 557" width="1360px" zoomAndPan="magnify"><defs/><g><rect fill="#FFFFFF" height="364.8672" style="stroke:#181818;stroke-width:1.0;" width="10" x="22.5" y="92.6094"/><rect fill="#FFFFFF" height="342.5156" style="stroke:#181818;stroke-width:1.0;" width="10" x="291.5" y="114.9609"/><rect fill="#FFFFFF" height="281.8125" style="stroke:#181818;stroke-width:1.0;" width="10" x="560.5" y="145.3125"/><rect fill="#FFFFFF" height="134.4063" style="stroke:#181818;stroke-width:1.0;" width="10" x="829.5" y="219.0156"/><rect fill="#FFFFFF" height="73.7031" style="stroke:#181818;stroke-width:1.0;" width="10" x="1098.5" y="249.3672"/><line style="stroke:#181818;stroke-width:0.5;stroke-dasharray:5.0,5.0;" x1="27" x2="27" y1="82.6094" y2="475.4766"/><line style="stroke:#181818;stroke-width:0.5;stroke-dasharray:5.0,5.0;" x1="296" x2="296" y1="82.6094" y2="475.4766"/><line style="stroke:#181818;stroke-width:0.5;stroke-dasharray:5.0,5.0;" x1="565.5" x2="565.5" y1="82.6094" y2="475.4766"/><line style="stroke:#181818;stroke-width:0.5;stroke-dasharray:5.0,5.0;" x1="834" x2="834" y1="82.6094" y2="475.4766"/><line style="stroke:#181818;stroke-width:0.5;stroke-dasharray:5.0,5.0;" x1="1103.5" x2="1103.5" y1="82.6094" y2="475.4766"/><text fill="#000000" font-family="sans-serif" font-size="14" lengthAdjust="spacing" textLength="39" x="5" y="79.5332">Admin</text><ellipse cx="27.5" cy="13.5" fill="#E2E2F0" rx="8" ry="8" style="stroke:#181818;stroke-width:0.5;"/><path d="M27.5,21.5 L27.5,48.5 M14.5,29.5 L40.5,29.5 M27.5,48.5 L14.5,63.5 M27.5,48.5 L40.5,63.5 " fill="none" style="stroke:#181818;stroke-width:0.5;"/><text fill="#000000" font-family="sans-serif" font-size="14" lengthAdjust="spacing" textLength="39" x="5" y="489.0098">Admin</text><ellipse cx="27.5" cy="500.5859" fill="#E2E2F0" rx="8" ry="8" style="stroke:#181818;stroke-width:0.5;"/><path d="M27.5,508.5859 L27.5,535.5859 M14.5,516.5859 L40.5,516.5859 M27.5,535.5859 L14.5,550.5859 M27.5,535.5859 L40.5,550.5859 " fill="none" style="stroke:#181818;stroke-width:0.5;"/><rect fill="#E2E2F0" height="49.2188" rx="2.5" ry="2.5" style="stroke:#181818;stroke-width:0.5;" width="205" x="194" y="32.3906"/><text fill="#000000" font-family="sans-serif" font-size="14" lengthAdjust="spacing" textLength="86" x="253.5" y="53.9238">&#171;component&#187;</text><text fill="#000000" font-family="sans-serif" font-size="14" lengthAdjust="spacing" textLength="191" x="201" y="71.5332">operationtype.component.html</text><rect fill="#E2E2F0" height="49.2188" rx="2.5" ry="2.5" style="stroke:#181818;stroke-width:0.5;" width="205" x="194" y="474.4766"/><text fill="#000000" font-family="sans-serif" font-size="14" lengthAdjust="spacing" textLength="86" x="253.5" y="496.0098">&#171;component&#187;</text><text fill="#000000" font-family="sans-serif" font-size="14" lengthAdjust="spacing" textLength="191" x="201" y="513.6191">operationtype.component.html</text><rect fill="#E2E2F0" height="49.2188" rx="2.5" ry="2.5" style="stroke:#181818;stroke-width:0.5;" width="190" x="470.5" y="32.3906"/><text fill="#000000" font-family="sans-serif" font-size="14" lengthAdjust="spacing" textLength="86" x="522.5" y="53.9238">&#171;component&#187;</text><text fill="#000000" font-family="sans-serif" font-size="14" lengthAdjust="spacing" textLength="176" x="477.5" y="71.5332">operationtype.component.ts</text><rect fill="#E2E2F0" height="49.2188" rx="2.5" ry="2.5" style="stroke:#181818;stroke-width:0.5;" width="190" x="470.5" y="474.4766"/><text fill="#000000" font-family="sans-serif" font-size="14" lengthAdjust="spacing" textLength="86" x="522.5" y="496.0098">&#171;component&#187;</text><text fill="#000000" font-family="sans-serif" font-size="14" lengthAdjust="spacing" textLength="176" x="477.5" y="513.6191">operationtype.component.ts</text><rect fill="#E2E2F0" height="49.2188" rx="2.5" ry="2.5" style="stroke:#181818;stroke-width:0.5;" width="165" x="752" y="32.3906"/><text fill="#000000" font-family="sans-serif" font-size="14" lengthAdjust="spacing" textLength="86" x="791.5" y="53.9238">&#171;component&#187;</text><text fill="#000000" font-family="sans-serif" font-size="14" lengthAdjust="spacing" textLength="151" x="759" y="71.5332">operationtype.service.ts</text><rect fill="#E2E2F0" height="49.2188" rx="2.5" ry="2.5" style="stroke:#181818;stroke-width:0.5;" width="165" x="752" y="474.4766"/><text fill="#000000" font-family="sans-serif" font-size="14" lengthAdjust="spacing" textLength="86" x="791.5" y="496.0098">&#171;component&#187;</text><text fill="#000000" font-family="sans-serif" font-size="14" lengthAdjust="spacing" textLength="151" x="759" y="513.6191">operationtype.service.ts</text><rect fill="#E2E2F0" height="66.8281" rx="2.5" ry="2.5" style="stroke:#181818;stroke-width:0.5;" width="122" x="1042.5" y="14.7813"/><text fill="#000000" font-family="sans-serif" font-size="14" lengthAdjust="spacing" textLength="86" x="1060.5" y="36.3145">&#171;component&#187;</text><text fill="#000000" font-family="sans-serif" font-size="14" lengthAdjust="spacing" textLength="108" x="1049.5" y="53.9238">&lt;&lt;C4 Container&gt;</text><text fill="#000000" font-family="sans-serif" font-size="14" lengthAdjust="spacing" textLength="55" x="1076" y="71.5332">Backend</text><rect fill="#E2E2F0" height="66.8281" rx="2.5" ry="2.5" style="stroke:#181818;stroke-width:0.5;" width="122" x="1042.5" y="474.4766"/><text fill="#000000" font-family="sans-serif" font-size="14" lengthAdjust="spacing" textLength="86" x="1060.5" y="496.0098">&#171;component&#187;</text><text fill="#000000" font-family="sans-serif" font-size="14" lengthAdjust="spacing" textLength="108" x="1049.5" y="513.6191">&lt;&lt;C4 Container&gt;</text><text fill="#000000" font-family="sans-serif" font-size="14" lengthAdjust="spacing" textLength="55" x="1076" y="531.2285">Backend</text><rect fill="#FFFFFF" height="364.8672" style="stroke:#181818;stroke-width:1.0;" width="10" x="22.5" y="92.6094"/><rect fill="#FFFFFF" height="342.5156" style="stroke:#181818;stroke-width:1.0;" width="10" x="291.5" y="114.9609"/><rect fill="#FFFFFF" height="281.8125" style="stroke:#181818;stroke-width:1.0;" width="10" x="560.5" y="145.3125"/><rect fill="#FFFFFF" height="134.4063" style="stroke:#181818;stroke-width:1.0;" width="10" x="829.5" y="219.0156"/><rect fill="#FFFFFF" height="73.7031" style="stroke:#181818;stroke-width:1.0;" width="10" x="1098.5" y="249.3672"/><polygon fill="#181818" points="279.5,110.9609,289.5,114.9609,279.5,118.9609,283.5,114.9609" style="stroke:#181818;stroke-width:1.0;"/><line style="stroke:#181818;stroke-width:1.0;" x1="32.5" x2="285.5" y1="114.9609" y2="114.9609"/><text fill="#000000" font-family="sans-serif" font-size="13" lengthAdjust="spacing" textLength="240" x="39.5" y="110.1045">Creates Operation Type with its attributes</text><polygon fill="#181818" points="548.5,141.3125,558.5,145.3125,548.5,149.3125,552.5,145.3125" style="stroke:#181818;stroke-width:1.0;"/><line style="stroke:#181818;stroke-width:1.0;" x1="301.5" x2="554.5" y1="145.3125" y2="145.3125"/><text fill="#000000" font-family="sans-serif" font-size="13" lengthAdjust="spacing" textLength="240" x="308.5" y="140.4561">Creates Operation Type with its attributes</text><line style="stroke:#181818;stroke-width:1.0;" x1="570.5" x2="612.5" y1="175.6641" y2="175.6641"/><line style="stroke:#181818;stroke-width:1.0;" x1="612.5" x2="612.5" y1="175.6641" y2="188.6641"/><line style="stroke:#181818;stroke-width:1.0;" x1="571.5" x2="612.5" y1="188.6641" y2="188.6641"/><polygon fill="#181818" points="581.5,184.6641,571.5,188.6641,581.5,192.6641,577.5,188.6641" style="stroke:#181818;stroke-width:1.0;"/><text fill="#000000" font-family="sans-serif" font-size="13" lengthAdjust="spacing" textLength="197" x="577.5" y="170.8076">Validate Operation Type attributes</text><polygon fill="#181818" points="817.5,215.0156,827.5,219.0156,817.5,223.0156,821.5,219.0156" style="stroke:#181818;stroke-width:1.0;"/><line style="stroke:#181818;stroke-width:1.0;" x1="570.5" x2="823.5" y1="219.0156" y2="219.0156"/><text fill="#000000" font-family="sans-serif" font-size="13" lengthAdjust="spacing" textLength="240" x="577.5" y="214.1592">Creates Operation Type with its attributes</text><polygon fill="#181818" points="1086.5,245.3672,1096.5,249.3672,1086.5,253.3672,1090.5,249.3672" style="stroke:#181818;stroke-width:1.0;"/><line style="stroke:#181818;stroke-width:1.0;" x1="839.5" x2="1092.5" y1="249.3672" y2="249.3672"/><text fill="#000000" font-family="sans-serif" font-size="13" lengthAdjust="spacing" textLength="240" x="846.5" y="244.5107">Creates Operation Type with its attributes</text><line style="stroke:#181818;stroke-width:1.0;" x1="1108.5" x2="1150.5" y1="279.7188" y2="279.7188"/><line style="stroke:#181818;stroke-width:1.0;" x1="1150.5" x2="1150.5" y1="279.7188" y2="292.7188"/><line style="stroke:#181818;stroke-width:1.0;" x1="1109.5" x2="1150.5" y1="292.7188" y2="292.7188"/><polygon fill="#181818" points="1119.5,288.7188,1109.5,292.7188,1119.5,296.7188,1115.5,292.7188" style="stroke:#181818;stroke-width:1.0;"/><text fill="#000000" font-family="sans-serif" font-size="13" lengthAdjust="spacing" textLength="238" x="1115.5" y="274.8623">creates Operation Type with its attributes</text><polygon fill="#181818" points="850.5,319.0703,840.5,323.0703,850.5,327.0703,846.5,323.0703" style="stroke:#181818;stroke-width:1.0;"/><line style="stroke:#181818;stroke-width:1.0;stroke-dasharray:2.0,2.0;" x1="844.5" x2="1102.5" y1="323.0703" y2="323.0703"/><text fill="#000000" font-family="sans-serif" font-size="13" lengthAdjust="spacing" textLength="114" x="856.5" y="318.2139">Return Confirmation</text><polygon fill="#181818" points="581.5,349.4219,571.5,353.4219,581.5,357.4219,577.5,353.4219" style="stroke:#181818;stroke-width:1.0;"/><line style="stroke:#181818;stroke-width:1.0;" x1="575.5" x2="833.5" y1="353.4219" y2="353.4219"/><text fill="#000000" font-family="sans-serif" font-size="13" lengthAdjust="spacing" textLength="114" x="587.5" y="348.5654">Return Confirmation</text><line style="stroke:#181818;stroke-width:1.0;" x1="570.5" x2="612.5" y1="383.7734" y2="383.7734"/><line style="stroke:#181818;stroke-width:1.0;" x1="612.5" x2="612.5" y1="383.7734" y2="396.7734"/><line style="stroke:#181818;stroke-width:1.0;" x1="571.5" x2="612.5" y1="396.7734" y2="396.7734"/><polygon fill="#181818" points="581.5,392.7734,571.5,396.7734,581.5,400.7734,577.5,396.7734" style="stroke:#181818;stroke-width:1.0;"/><text fill="#000000" font-family="sans-serif" font-size="13" lengthAdjust="spacing" textLength="161" x="577.5" y="378.917">Refresh Operation Type List</text><polygon fill="#181818" points="312.5,423.125,302.5,427.125,312.5,431.125,308.5,427.125" style="stroke:#181818;stroke-width:1.0;"/><line style="stroke:#181818;stroke-width:1.0;stroke-dasharray:2.0,2.0;" x1="306.5" x2="564.5" y1="427.125" y2="427.125"/><text fill="#000000" font-family="sans-serif" font-size="13" lengthAdjust="spacing" textLength="114" x="318.5" y="422.2686">Return Confirmation</text><polygon fill="#181818" points="38.5,453.4766,28.5,457.4766,38.5,461.4766,34.5,457.4766" style="stroke:#181818;stroke-width:1.0;"/><line style="stroke:#181818;stroke-width:1.0;stroke-dasharray:2.0,2.0;" x1="32.5" x2="295.5" y1="457.4766" y2="457.4766"/><text fill="#000000" font-family="sans-serif" font-size="13" lengthAdjust="spacing" textLength="114" x="44.5" y="452.6201">Return Confirmation</text><!--SRC=[dPB1QiCm38RlUGhH-thQQOJ0bkjWKCPEksYEIiGQnzXgnzv-iXgtQGyhpSNOblxFqc-Xap72SpUm1qo0ULC5ZCAE0tg1LLsxSGYZ9ozDy-d7G165Ho-_WTQdqBgNORVAYBnPH91aUabtg1F50pigskduBw2ksqTeLO_iAUh52xflyfq1C71LeHC-eD3aXgtmq5Xdy0Hj90qcU2kLmBkM0ZyiFR0eGoJorrvJpYGpnVJAqPnb5BL68uNmWJlkylKLOgOyPa-kB7oqU5ee2bIN5iAolrbzWhWx85btqSw6P1zz_imjny7aLKSNZysgDjDkI4gpCvitj8sK-kiANpc9fPq7umPRV-yu0RbvcwcR4XkRUKSsa5Nr1m00]--></g></svg>