<?xml version="1.0" encoding="us-ascii" standalone="no"?><svg xmlns="http://www.w3.org/2000/svg" xmlns:xlink="http://www.w3.org/1999/xlink" contentStyleType="text/css" height="453px" preserveAspectRatio="none" style="width:683px;height:453px;background:#FFFFFF;" version="1.1" viewBox="0 0 683 453" width="683px" zoomAndPan="magnify"><defs/><g><rect fill="#FFFFFF" height="238.1094" style="stroke:#181818;stroke-width:1.0;" width="10" x="22.5" y="114.9609"/><rect fill="#FFFFFF" height="238.1094" style="stroke:#181818;stroke-width:1.0;" width="10" x="228.5" y="114.9609"/><rect fill="#FFFFFF" height="177.4063" style="stroke:#181818;stroke-width:1.0;" width="10" x="439.5" y="145.3125"/><rect fill="#FFFFFF" height="30" style="stroke:#181818;stroke-width:1.0;" width="10" x="643.5" y="219.0156"/><line style="stroke:#181818;stroke-width:0.5;stroke-dasharray:5.0,5.0;" x1="27" x2="27" y1="82.6094" y2="371.0703"/><line style="stroke:#181818;stroke-width:0.5;stroke-dasharray:5.0,5.0;" x1="233.5" x2="233.5" y1="82.6094" y2="371.0703"/><line style="stroke:#181818;stroke-width:0.5;stroke-dasharray:5.0,5.0;" x1="444" x2="444" y1="82.6094" y2="371.0703"/><line style="stroke:#181818;stroke-width:0.5;stroke-dasharray:5.0,5.0;" x1="648" x2="648" y1="82.6094" y2="371.0703"/><text fill="#000000" font-family="sans-serif" font-size="14" lengthAdjust="spacing" textLength="39" x="5" y="79.5332">Admin</text><ellipse cx="27.5" cy="13.5" fill="#E2E2F0" rx="8" ry="8" style="stroke:#181818;stroke-width:0.5;"/><path d="M27.5,21.5 L27.5,48.5 M14.5,29.5 L40.5,29.5 M27.5,48.5 L14.5,63.5 M27.5,48.5 L40.5,63.5 " fill="none" style="stroke:#181818;stroke-width:0.5;"/><text fill="#000000" font-family="sans-serif" font-size="14" lengthAdjust="spacing" textLength="39" x="5" y="384.6035">Admin</text><ellipse cx="27.5" cy="396.1797" fill="#E2E2F0" rx="8" ry="8" style="stroke:#181818;stroke-width:0.5;"/><path d="M27.5,404.1797 L27.5,431.1797 M14.5,412.1797 L40.5,412.1797 M27.5,431.1797 L14.5,446.1797 M27.5,431.1797 L40.5,446.1797 " fill="none" style="stroke:#181818;stroke-width:0.5;"/><rect fill="#E2E2F0" height="31.6094" rx="2.5" ry="2.5" style="stroke:#181818;stroke-width:0.5;" width="72" x="197.5" y="50"/><text fill="#000000" font-family="sans-serif" font-size="14" lengthAdjust="spacing" textLength="58" x="204.5" y="71.5332">Frontend</text><rect fill="#E2E2F0" height="31.6094" rx="2.5" ry="2.5" style="stroke:#181818;stroke-width:0.5;" width="72" x="197.5" y="370.0703"/><text fill="#000000" font-family="sans-serif" font-size="14" lengthAdjust="spacing" textLength="58" x="204.5" y="391.6035">Frontend</text><rect fill="#E2E2F0" height="31.6094" rx="2.5" ry="2.5" style="stroke:#181818;stroke-width:0.5;" width="69" x="410" y="50"/><text fill="#000000" font-family="sans-serif" font-size="14" lengthAdjust="spacing" textLength="55" x="417" y="71.5332">Backend</text><rect fill="#E2E2F0" height="31.6094" rx="2.5" ry="2.5" style="stroke:#181818;stroke-width:0.5;" width="69" x="410" y="370.0703"/><text fill="#000000" font-family="sans-serif" font-size="14" lengthAdjust="spacing" textLength="55" x="417" y="391.6035">Backend</text><text fill="#000000" font-family="sans-serif" font-size="14" lengthAdjust="spacing" textLength="61" x="615" y="79.5332">Database</text><path d="M630.5,29 C630.5,19 648.5,19 648.5,19 C648.5,19 666.5,19 666.5,29 L666.5,55 C666.5,65 648.5,65 648.5,65 C648.5,65 630.5,65 630.5,55 L630.5,29 " fill="#E2E2F0" style="stroke:#181818;stroke-width:1.5;"/><path d="M630.5,29 C630.5,39 648.5,39 648.5,39 C648.5,39 666.5,39 666.5,29 " fill="none" style="stroke:#181818;stroke-width:1.5;"/><text fill="#000000" font-family="sans-serif" font-size="14" lengthAdjust="spacing" textLength="61" x="615" y="384.6035">Database</text><path d="M630.5,397.6797 C630.5,387.6797 648.5,387.6797 648.5,387.6797 C648.5,387.6797 666.5,387.6797 666.5,397.6797 L666.5,423.6797 C666.5,433.6797 648.5,433.6797 648.5,433.6797 C648.5,433.6797 630.5,433.6797 630.5,423.6797 L630.5,397.6797 " fill="#E2E2F0" style="stroke:#181818;stroke-width:1.5;"/><path d="M630.5,397.6797 C630.5,407.6797 648.5,407.6797 648.5,407.6797 C648.5,407.6797 666.5,407.6797 666.5,397.6797 " fill="none" style="stroke:#181818;stroke-width:1.5;"/><rect fill="#FFFFFF" height="238.1094" style="stroke:#181818;stroke-width:1.0;" width="10" x="22.5" y="114.9609"/><rect fill="#FFFFFF" height="238.1094" style="stroke:#181818;stroke-width:1.0;" width="10" x="228.5" y="114.9609"/><rect fill="#FFFFFF" height="177.4063" style="stroke:#181818;stroke-width:1.0;" width="10" x="439.5" y="145.3125"/><rect fill="#FFFFFF" height="30" style="stroke:#181818;stroke-width:1.0;" width="10" x="643.5" y="219.0156"/><polygon fill="#181818" points="216.5,110.9609,226.5,114.9609,216.5,118.9609,220.5,114.9609" style="stroke:#181818;stroke-width:1.0;"/><line style="stroke:#181818;stroke-width:1.0;" x1="32.5" x2="222.5" y1="114.9609" y2="114.9609"/><text fill="#000000" font-family="sans-serif" font-size="13" lengthAdjust="spacing" textLength="182" x="39.5" y="110.1045">Edits Operation Type Attributes</text><polygon fill="#181818" points="427.5,141.3125,437.5,145.3125,427.5,149.3125,431.5,145.3125" style="stroke:#181818;stroke-width:1.0;"/><line style="stroke:#181818;stroke-width:1.0;" x1="238.5" x2="433.5" y1="145.3125" y2="145.3125"/><text fill="#000000" font-family="sans-serif" font-size="13" lengthAdjust="spacing" textLength="182" x="245.5" y="140.4561">Edits Operation Type Attributes</text><line style="stroke:#181818;stroke-width:1.0;" x1="449.5" x2="491.5" y1="175.6641" y2="175.6641"/><line style="stroke:#181818;stroke-width:1.0;" x1="491.5" x2="491.5" y1="175.6641" y2="188.6641"/><line style="stroke:#181818;stroke-width:1.0;" x1="450.5" x2="491.5" y1="188.6641" y2="188.6641"/><polygon fill="#181818" points="460.5,184.6641,450.5,188.6641,460.5,192.6641,456.5,188.6641" style="stroke:#181818;stroke-width:1.0;"/><text fill="#000000" font-family="sans-serif" font-size="13" lengthAdjust="spacing" textLength="170" x="456.5" y="170.8076">Validate Operation Type Data</text><polygon fill="#181818" points="631.5,215.0156,641.5,219.0156,631.5,223.0156,635.5,219.0156" style="stroke:#181818;stroke-width:1.0;"/><line style="stroke:#181818;stroke-width:1.0;" x1="449.5" x2="637.5" y1="219.0156" y2="219.0156"/><text fill="#000000" font-family="sans-serif" font-size="13" lengthAdjust="spacing" textLength="175" x="456.5" y="214.1592">Save Operation Type Changes</text><line style="stroke:#181818;stroke-width:1.0;" x1="449.5" x2="491.5" y1="279.3672" y2="279.3672"/><line style="stroke:#181818;stroke-width:1.0;" x1="491.5" x2="491.5" y1="279.3672" y2="292.3672"/><line style="stroke:#181818;stroke-width:1.0;" x1="450.5" x2="491.5" y1="292.3672" y2="292.3672"/><polygon fill="#181818" points="460.5,288.3672,450.5,292.3672,460.5,296.3672,456.5,292.3672" style="stroke:#181818;stroke-width:1.0;"/><text fill="#000000" font-family="sans-serif" font-size="13" lengthAdjust="spacing" textLength="140" x="456.5" y="274.5107">Log Operation Type Edit</text><polygon fill="#181818" points="249.5,318.7188,239.5,322.7188,249.5,326.7188,245.5,322.7188" style="stroke:#181818;stroke-width:1.0;"/><line style="stroke:#181818;stroke-width:1.0;" x1="243.5" x2="443.5" y1="322.7188" y2="322.7188"/><text fill="#000000" font-family="sans-serif" font-size="13" lengthAdjust="spacing" textLength="114" x="255.5" y="317.8623">Return Confirmation</text><polygon fill="#181818" points="38.5,349.0703,28.5,353.0703,38.5,357.0703,34.5,353.0703" style="stroke:#181818;stroke-width:1.0;"/><line style="stroke:#181818;stroke-width:1.0;" x1="32.5" x2="232.5" y1="353.0703" y2="353.0703"/><text fill="#000000" font-family="sans-serif" font-size="13" lengthAdjust="spacing" textLength="114" x="44.5" y="348.2139">Return Confirmation</text><!--SRC=[bL3D3e8m3BxlAHhkle07aubwCZ5HuxsmYOswBQDWV7ifWe8UZBUstq-_5dFs4RIvaWCiGQk0aIcdW8uXMKNls3gJ27QpsHYTOtxkGGoa339cM5f85btLGYPJIiDa9WOmXQKXBc4JR4Gcxs1_3nOqSwIiObigp9bgv6RsBcMr4ddZqcpwnqM2AT6yf0Uya17eGosXUwQHf3kilqZf2Lqnz6-kCtROZNQjVV7f8CbxqlCZMyjLT91wTwHuRQb3JxcWkrt_Pikh1grM3m00]--></g></svg>