<?xml version="1.0" standalone="no"?>
<!DOCTYPE svg PUBLIC "-//W3C//DTD SVG 20010904//EN"
 "http://www.w3.org/TR/2001/REC-SVG-20010904/DTD/svg10.dtd">
<svg version="1.0" xmlns="http://www.w3.org/2000/svg"
 width="1308.000000pt" height="1308.000000pt" viewBox="0 0 1308.000000 1308.000000"
 preserveAspectRatio="xMidYMid meet">

<g transform="translate(0.000000,1308.000000) scale(0.100000,-0.100000)"
fill="#000000" stroke="none">
<path d="M5810 11870 c-34 -7 -34 -7 -5 -8 17 0 39 3 50 8 24 10 4 10 -45 0z"/>
<path d="M5703 11859 c-18 -5 -33 -13 -33 -17 0 -5 -22 -16 -49 -26 -27 -9
-52 -23 -54 -30 -3 -7 -23 -18 -45 -25 -23 -8 -43 -19 -45 -25 -3 -7 -23 -18
-46 -26 -23 -7 -41 -17 -41 -21 0 -4 -25 -16 -55 -25 -30 -10 -55 -21 -55 -25
0 -4 -16 -13 -35 -19 -22 -7 -35 -18 -35 -28 0 -10 3 -13 8 -7 4 6 33 19 65
28 31 10 57 22 57 26 0 5 16 12 36 15 19 4 43 15 53 24 20 19 48 39 71 49 8 4
21 13 28 20 7 7 22 13 32 13 10 0 22 5 25 10 3 6 15 10 26 10 10 0 19 3 19 8
0 7 37 25 80 37 24 7 50 28 50 39 0 8 -18 6 -57 -5z"/>
<path d="M5960 11707 c0 -24 -10 -29 -96 -52 -12 -3 -24 -14 -27 -25 -3 -11
-13 -23 -24 -27 -10 -4 -24 -15 -31 -25 -7 -10 -19 -18 -27 -18 -8 0 -18 -6
-22 -13 -9 -14 -108 -47 -141 -47 -12 0 -22 -4 -22 -10 0 -5 -12 -10 -27 -10
-16 0 -23 -4 -18 -8 14 -9 12 -89 -2 -103 -6 -6 -32 -14 -57 -16 -25 -3 -46
-10 -46 -14 0 -5 -24 -9 -52 -10 -46 -1 -49 -2 -23 -9 17 -4 51 -11 77 -15 39
-5 49 -11 54 -30 9 -36 1 -59 -24 -70 -25 -11 -30 -35 -7 -35 20 0 35 -40 35
-95 0 -38 -4 -47 -27 -62 -16 -10 -31 -22 -34 -27 -4 -5 -55 -12 -115 -16 -95
-6 -109 -9 -122 -28 -8 -12 -20 -22 -26 -22 -6 0 -24 -11 -40 -25 l-29 -25 37
0 c38 0 75 -14 88 -34 4 -6 8 -34 8 -62 0 -45 3 -52 27 -63 22 -10 28 -10 35
3 5 9 15 16 22 16 8 0 16 6 19 14 3 7 26 19 51 27 25 7 46 17 46 21 0 4 14 8
30 8 17 0 30 -4 30 -9 0 -5 8 -12 18 -15 43 -17 61 -32 66 -59 10 -48 7 -57
-16 -58 -17 -1 -19 -2 -5 -6 9 -2 17 -9 17 -14 0 -21 41 -7 73 26 40 41 109
68 152 60 20 -4 26 -3 16 3 -14 10 -10 17 50 80 14 15 29 35 32 45 4 9 13 17
21 17 8 0 19 6 23 13 11 16 70 47 91 47 9 0 29 -7 45 -14 l27 -15 -17 25 c-23
31 -45 36 -127 32 -39 -2 -68 1 -70 7 -2 5 -5 4 -5 -2 -1 -7 -10 -13 -21 -13
-11 0 -20 -6 -20 -14 0 -8 -4 -17 -9 -20 -11 -7 1 43 16 69 11 17 14 18 23 5
7 -10 10 -11 11 -2 3 27 4 31 12 38 12 13 8 34 -8 34 -8 0 -15 9 -15 20 0 11
7 20 15 20 8 0 15 5 15 10 0 6 6 10 14 10 8 0 17 14 21 31 7 30 9 31 49 26 22
-2 35 -3 29 0 -7 3 -13 9 -13 14 0 14 28 11 33 -3 4 -8 6 -7 6 4 1 9 7 23 14
30 7 7 16 21 20 31 6 15 10 16 27 5 21 -14 27 -28 10 -28 -5 0 -10 -4 -10 -10
0 -16 14 -12 40 12 16 15 25 18 28 10 5 -15 29 -16 34 0 4 10 23 15 70 17 9 1
20 10 23 21 3 11 12 20 20 20 7 0 15 5 17 11 2 7 11 7 28 0 16 -6 19 -10 9
-10 -9 -1 -19 -7 -22 -14 -4 -10 3 -12 24 -9 16 2 29 8 29 13 0 5 9 9 21 9 28
0 59 18 59 34 0 7 11 18 25 24 18 8 24 18 23 37 -1 14 -7 25 -13 25 -21 0 -65
-25 -65 -37 0 -7 -4 -13 -10 -13 -18 0 -10 29 10 35 12 4 20 15 20 27 0 12 7
29 15 38 20 22 9 50 -19 50 -17 0 -18 -2 -6 -10 13 -8 12 -10 -2 -10 -10 0
-19 -4 -19 -10 -3 -20 -5 -25 -17 -45 -10 -17 -13 -18 -21 -5 -8 11 -6 17 6
21 15 5 15 6 0 12 -9 3 -17 2 -17 -3 0 -6 -10 -10 -23 -10 -20 0 -23 5 -22 35
1 31 -1 35 -19 29 -24 -8 -36 -22 -36 -46 0 -9 -8 -19 -18 -22 -10 -4 -23 -21
-29 -39 -5 -17 -8 -24 -7 -14 2 13 -2 17 -13 13 -8 -3 -17 -6 -19 -6 -2 0 -4
-6 -4 -14 0 -7 -7 -19 -15 -26 -14 -11 -14 -10 -5 14 14 39 13 45 -10 39 -14
-4 -20 0 -20 11 0 11 9 16 26 16 18 0 23 4 17 13 -7 11 -9 36 -12 145 -1 37
-3 41 -15 30 -24 -25 -29 -56 -9 -67 12 -7 14 -13 7 -18 -13 -10 -28 -44 -25
-60 1 -7 -3 -13 -9 -13 -5 0 -10 5 -10 10 0 6 -7 10 -15 10 -12 0 -15 9 -13
35 1 24 7 35 18 35 13 0 13 1 0 10 -12 8 -13 11 -1 19 11 7 11 9 0 14 -12 5
-12 7 0 15 7 5 14 22 15 38 1 16 5 34 8 40 9 13 -42 24 -114 24 -44 0 -48 -2
-48 -23z m104 -122 c3 -9 0 -15 -9 -15 -8 0 -15 7 -15 15 0 8 4 15 9 15 5 0
11 -7 15 -15z m-27 -107 c-3 -8 -6 -5 -6 6 -1 11 2 17 5 13 3 -3 4 -12 1 -19z
m128 -8 c3 -5 -1 -10 -9 -10 -9 0 -16 5 -16 10 0 6 4 10 9 10 6 0 13 -4 16
-10z m205 -30 c0 -5 -7 -10 -15 -10 -8 0 -15 5 -15 10 0 6 7 10 15 10 8 0 15
-4 15 -10z m70 0 c0 -5 -4 -10 -10 -10 -5 0 -10 5 -10 10 0 6 5 10 10 10 6 0
10 -4 10 -10z m-310 -47 c0 -7 -10 -14 -22 -14 -16 -1 -18 -3 -7 -6 18 -4 15
-41 -5 -56 -8 -6 -7 -10 2 -14 19 -7 14 -23 -7 -23 -22 0 -37 30 -21 40 7 4
11 13 10 21 -4 25 0 37 16 53 12 12 12 16 2 16 -10 0 -9 3 2 10 15 9 30 -4 30
-27z m-90 -53 c0 -5 -4 -10 -10 -10 -5 0 -10 5 -10 10 0 6 5 10 10 10 6 0 10
-4 10 -10z m-30 -106 c0 -15 -5 -24 -12 -22 -16 6 -18 48 -1 48 7 0 13 -11 13
-26z m-130 -99 c0 -8 -9 -15 -20 -15 -17 0 -19 2 -8 15 17 19 28 19 28 0z
m-116 -267 c3 -17 4 -33 1 -36 -3 -3 -5 2 -5 11 0 25 -18 21 -22 -4 -2 -12
-12 -27 -22 -33 -11 -6 -28 -19 -38 -28 -26 -25 -51 -24 -43 2 9 27 52 70 70
70 8 0 17 11 21 25 9 35 30 31 38 -7z"/>
<path d="M6153 11713 c9 -2 23 -2 30 0 6 3 -1 5 -18 5 -16 0 -22 -2 -12 -5z"/>
<path d="M6233 11713 c9 -2 23 -2 30 0 6 3 -1 5 -18 5 -16 0 -22 -2 -12 -5z"/>
<path d="M6160 11685 c0 -8 4 -15 10 -15 5 0 7 7 4 15 -4 8 -8 15 -10 15 -2 0
-4 -7 -4 -15z"/>
<path d="M6602 11450 c-21 -20 -26 -33 -23 -54 1 -4 -4 -15 -11 -24 -11 -13
-10 -14 9 -4 31 17 41 15 15 -4 -32 -22 -27 -34 16 -34 20 0 54 -4 75 -9 39
-9 39 -9 18 10 -11 10 -25 19 -32 19 -6 0 -9 7 -5 15 3 9 0 15 -9 15 -18 0
-29 41 -20 69 8 27 -5 27 -33 1z"/>
<path d="M7208 11463 c18 -2 45 -2 60 0 15 2 0 4 -33 4 -33 0 -45 -2 -27 -4z"/>
<path d="M7333 11464 c3 -4 -1 -13 -9 -22 -14 -14 -14 -16 1 -25 9 -5 25 -7
36 -4 16 4 19 2 14 -14 -5 -15 -1 -19 18 -19 14 0 27 -5 29 -11 2 -6 15 -9 28
-7 22 4 23 5 7 13 -11 4 -30 19 -43 31 -12 13 -27 24 -33 24 -5 0 -13 9 -16
20 -3 11 -14 20 -22 20 -9 0 -14 -3 -10 -6z"/>
<path d="M6840 11391 c0 -5 31 -11 69 -13 52 -2 67 0 64 10 -6 14 -133 17
-133 3z"/>
<path d="M7028 11353 c6 -2 18 -2 25 0 6 3 1 5 -13 5 -14 0 -19 -2 -12 -5z"/>
<path d="M6482 11330 c-11 -17 -10 -20 7 -20 16 0 31 18 31 36 0 12 -27 1 -38
-16z"/>
<path d="M6736 11295 c3 -7 12 -16 19 -19 9 -3 12 0 9 9 -3 7 -12 16 -19 19
-9 3 -12 0 -9 -9z"/>
<path d="M4940 11290 c0 -5 5 -10 10 -10 6 0 10 5 10 10 0 6 -4 10 -10 10 -5
0 -10 -4 -10 -10z"/>
<path d="M6866 11264 c-12 -33 -6 -41 32 -41 20 0 27 2 15 4 -17 3 -23 11 -23
29 0 27 -15 32 -24 8z"/>
<path d="M6788 11185 c-17 -19 -31 -25 -64 -25 -34 0 -46 -5 -55 -21 -10 -20
-9 -21 23 -14 18 4 35 11 38 16 3 4 25 11 49 15 33 5 47 3 55 -7 6 -8 28 -23
49 -32 20 -10 37 -22 37 -27 0 -5 9 -12 20 -15 23 -7 27 -45 5 -45 -33 0 -13
-15 21 -16 24 0 42 -8 53 -22 9 -11 35 -27 59 -34 23 -7 42 -16 42 -20 0 -4
19 -12 43 -18 23 -6 47 -17 52 -24 6 -7 25 -20 43 -30 17 -9 32 -21 32 -26 0
-6 6 -10 13 -10 14 0 77 -57 77 -69 0 -4 20 -30 45 -57 85 -92 91 -99 105
-134 8 -19 22 -44 32 -54 10 -11 18 -25 18 -32 0 -7 6 -19 13 -26 7 -7 21 -32
31 -55 10 -24 27 -45 37 -48 11 -4 19 -11 19 -16 0 -5 7 -9 15 -9 21 0 19 13
-4 27 -11 7 -22 26 -26 43 -4 16 -10 30 -15 30 -13 0 -24 88 -26 200 -1 124
-9 179 -29 194 -22 17 -24 75 -2 98 6 7 18 21 26 31 12 15 11 17 -13 17 -20 0
-26 -5 -27 -22 -1 -15 -3 -17 -6 -7 -3 11 -12 15 -29 11 -19 -3 -25 -12 -30
-43 -4 -23 -12 -39 -20 -39 -8 0 -11 6 -8 15 5 11 -1 15 -20 15 -20 0 -26 5
-26 21 0 25 -30 79 -45 79 -5 0 -3 5 5 10 12 8 11 10 -7 10 -31 0 -53 10 -53
25 0 7 -12 12 -29 11 -31 -1 -30 -11 5 -38 19 -15 21 -25 17 -60 -7 -52 -7
-52 -30 -39 -10 6 -12 11 -5 11 19 0 14 28 -8 50 -11 11 -38 27 -60 36 -22 9
-40 20 -40 24 0 4 -22 16 -50 26 -27 10 -50 21 -50 25 0 4 -26 15 -57 25 -32
10 -60 20 -63 24 -3 3 -32 15 -65 25 -33 11 -66 26 -73 33 -18 16 -19 16 -44
-13z"/>
<path d="M6580 11140 c0 -5 7 -10 15 -10 8 0 15 5 15 10 0 6 -7 10 -15 10 -8
0 -15 -4 -15 -10z"/>
<path d="M6538 11123 c6 -2 18 -2 25 0 6 3 1 5 -13 5 -14 0 -19 -2 -12 -5z"/>
<path d="M6417 11113 c18 -2 50 -2 70 0 21 2 7 4 -32 4 -38 0 -55 -2 -38 -4z"/>
<path d="M5940 11070 c0 -5 5 -10 10 -10 6 0 10 5 10 10 0 6 -4 10 -10 10 -5
0 -10 -4 -10 -10z"/>
<path d="M6825 10950 c-12 -20 7 -71 30 -82 27 -12 23 -38 -6 -38 -28 0 -23
-15 6 -16 14 -1 25 2 25 7 0 14 64 11 102 -6 22 -9 45 -11 62 -7 l28 8 -33 24
c-19 14 -45 37 -59 53 -13 15 -30 27 -37 27 -7 0 -17 9 -23 20 -8 15 -21 20
-50 20 -21 0 -42 -5 -45 -10z"/>
<path d="M4480 10924 c0 -17 -76 -90 -111 -107 -19 -9 -40 -25 -47 -36 -7 -12
-19 -21 -27 -21 -8 0 -18 -6 -22 -12 -4 -7 -25 -22 -45 -32 -28 -14 -38 -26
-38 -43 0 -12 5 -23 10 -23 15 0 12 -97 -2 -104 -10 -5 -10 -7 0 -12 14 -7 18
-184 3 -184 -5 0 -12 -15 -15 -32 -3 -18 -20 -49 -36 -68 -17 -19 -33 -44 -36
-55 -4 -11 -11 -23 -16 -26 -13 -9 -11 -201 2 -209 7 -5 12 -43 13 -99 2 -77
-1 -94 -15 -102 -13 -7 -15 -20 -11 -66 3 -32 9 -59 14 -61 5 -2 9 -12 9 -22
0 -26 29 -90 40 -90 6 0 10 -16 10 -35 0 -19 -4 -35 -10 -35 -5 0 -10 -7 -10
-15 0 -8 4 -15 9 -15 4 0 16 -21 26 -47 10 -27 21 -50 24 -53 4 -3 15 -31 26
-62 11 -32 23 -58 27 -58 13 0 9 -28 -4 -33 -9 -4 -9 -6 -1 -6 6 -1 17 -24 24
-52 11 -44 16 -49 34 -44 48 16 74 16 104 1 17 -9 31 -21 31 -26 0 -6 6 -10
13 -10 19 -1 51 -31 72 -70 11 -19 25 -38 31 -42 6 -4 16 -25 24 -48 7 -22 17
-40 21 -40 5 0 13 -17 19 -38 11 -43 60 -99 106 -122 38 -20 78 -62 93 -99 10
-23 10 -41 0 -87 -12 -53 -11 -58 5 -68 10 -6 30 -21 44 -33 15 -13 29 -23 32
-23 3 0 14 -20 25 -45 11 -25 23 -45 28 -45 4 0 12 -11 17 -24 7 -20 20 -26
73 -35 35 -6 76 -11 90 -11 15 0 27 -4 27 -9 0 -4 37 -11 83 -14 86 -6 129
-18 152 -41 21 -21 -2 -27 -120 -33 -107 -6 -387 21 -393 38 -2 5 -12 9 -22 9
-22 0 -123 32 -130 41 -3 3 -21 10 -40 13 -48 10 -93 28 -105 42 -5 6 -23 15
-39 18 -15 4 -30 15 -33 25 -2 9 -20 23 -39 30 -19 7 -34 17 -34 22 0 5 -7 9
-15 9 -14 0 -27 11 -139 114 -27 25 -53 46 -56 46 -4 0 -27 20 -51 44 -52 51
-89 67 -89 39 0 -15 -2 -16 -10 -3 -5 8 -5 16 -1 18 16 5 -1 42 -19 42 -19 0
-50 30 -50 48 0 7 -5 12 -11 12 -15 0 -129 119 -129 135 0 8 -9 19 -20 25 -11
6 -20 17 -20 25 0 8 -9 15 -20 15 -13 0 -28 12 -38 30 -9 16 -20 30 -24 30 -4
0 -15 14 -23 31 -12 23 -21 29 -36 24 -13 -4 -19 -2 -19 9 0 8 -8 23 -18 33
-11 10 -25 33 -33 51 -8 17 -17 32 -20 32 -4 0 -15 23 -25 50 -10 28 -21 50
-25 50 -3 0 -14 21 -24 47 -10 27 -24 53 -31 60 -6 7 -17 43 -24 80 -7 37 -16
70 -21 73 -13 9 -29 295 -19 332 23 79 6 131 -67 203 -24 23 -43 45 -43 49 0
8 -34 46 -105 117 -91 90 -112 109 -123 109 -6 0 -16 8 -21 18 -5 10 -25 24
-45 32 -20 7 -36 17 -36 22 0 4 -15 15 -32 24 -18 9 -35 20 -38 23 -3 3 -21
15 -40 25 -19 11 -38 23 -41 28 -3 5 -32 16 -65 24 -32 9 -61 19 -64 23 -6 9
-220 41 -267 41 -18 0 -33 5 -33 10 0 6 -43 10 -110 10 -67 0 -110 -4 -110
-10 0 -5 -18 -10 -40 -10 -22 0 -40 5 -40 10 0 15 -60 12 -76 -4 -12 -13 -12
-16 4 -28 9 -7 26 -26 36 -43 11 -16 28 -38 38 -49 10 -11 18 -23 18 -26 0 -6
13 -23 64 -82 8 -9 23 -29 33 -45 10 -15 26 -37 35 -47 10 -11 18 -25 18 -32
0 -7 6 -17 13 -21 7 -4 21 -26 32 -48 11 -22 26 -44 33 -48 6 -4 12 -14 12
-21 0 -7 8 -21 18 -32 10 -10 24 -35 31 -54 8 -19 19 -39 25 -45 6 -5 20 -28
31 -50 11 -22 25 -46 32 -53 6 -7 17 -28 24 -47 7 -19 16 -35 21 -35 4 0 14
-13 22 -29 19 -36 43 -65 134 -159 39 -42 72 -79 72 -83 0 -10 269 -276 286
-283 8 -3 17 -13 21 -22 3 -9 26 -35 50 -58 23 -22 43 -46 43 -53 0 -7 9 -17
20 -23 11 -6 20 -16 20 -23 0 -7 9 -23 20 -35 11 -12 20 -25 20 -30 0 -5 7
-15 15 -22 13 -11 15 -6 15 39 0 28 3 51 8 51 4 0 15 22 24 48 18 49 53 80 80
70 7 -3 19 -23 27 -44 8 -22 18 -41 22 -45 5 -3 16 -36 26 -75 9 -38 20 -70
25 -72 4 -2 10 -19 14 -38 6 -35 57 -94 81 -94 7 0 13 -4 13 -9 0 -5 18 -17
40 -27 22 -10 40 -20 40 -24 0 -3 17 -14 37 -25 43 -23 120 -98 105 -103 -15
-5 -2 -41 19 -53 11 -5 19 -16 19 -24 0 -8 5 -15 10 -15 6 0 10 -9 10 -20 0
-11 4 -20 8 -20 5 0 17 -17 28 -37 27 -53 37 -61 93 -80 28 -9 51 -20 51 -25
0 -4 10 -9 23 -9 13 -1 16 -3 7 -5 -12 -4 -15 -14 -12 -39 2 -19 8 -35 13 -35
8 0 59 -47 59 -55 0 -9 40 -45 50 -45 6 0 10 -4 10 -8 0 -7 48 -23 113 -37 25
-5 39 -25 17 -25 -5 0 -10 5 -10 10 0 6 -4 10 -10 10 -21 0 -9 -18 20 -30 17
-7 30 -18 30 -25 0 -7 11 -24 25 -39 14 -15 25 -31 25 -37 0 -5 10 -9 23 -8
l22 0 -22 9 c-39 16 -22 48 18 35 12 -4 18 -12 15 -21 -3 -9 1 -14 14 -14 10
0 21 -4 25 -10 3 -5 13 -6 23 -3 15 6 15 5 -1 -12 -19 -18 -18 -19 20 -34 21
-8 41 -19 44 -24 4 -5 46 -11 94 -13 48 -2 103 -8 122 -15 51 -16 139 -110
149 -159 9 -42 13 -50 24 -50 5 0 10 11 10 24 0 32 31 126 41 126 5 0 16 15
25 33 9 17 20 34 23 37 3 3 14 22 25 42 18 37 72 68 115 68 11 0 21 4 23 8 2
5 18 12 36 15 29 6 32 5 23 -12 -6 -10 -17 -21 -24 -24 -8 -3 -17 -18 -20 -32
-3 -21 0 -29 14 -32 11 -3 19 -10 19 -15 0 -5 16 -16 36 -24 27 -11 34 -20 32
-37 -2 -18 3 -23 25 -25 15 -2 27 -8 27 -13 0 -5 6 -9 14 -9 7 0 19 -7 26 -15
7 -8 23 -15 35 -15 13 0 26 -7 29 -16 5 -13 16 -16 56 -12 31 3 57 0 67 -7 10
-7 38 -13 62 -13 33 -1 47 -6 58 -22 12 -17 22 -21 47 -16 18 4 36 3 40 -1 4
-4 19 -7 34 -8 22 0 28 -5 30 -27 4 -31 13 -34 41 -17 23 15 67 4 89 -21 11
-14 29 -20 59 -20 23 0 45 -5 48 -11 4 -5 19 -9 33 -7 20 2 27 -1 27 -14 0
-10 4 -18 8 -18 4 0 12 0 17 0 6 0 10 7 10 15 0 8 5 15 11 15 6 0 9 -6 7 -12
-8 -24 21 -40 57 -34 26 5 36 3 44 -11 9 -15 10 -15 11 -2 0 24 44 41 66 25
15 -11 21 -10 39 10 22 24 65 33 65 14 0 -14 27 -12 34 3 5 10 7 10 12 0 3 -7
16 -13 29 -13 13 0 26 6 29 13 5 10 7 10 12 0 9 -19 54 -16 54 3 0 14 7 15 37
11 20 -4 40 -12 44 -18 4 -8 22 3 52 32 82 81 127 107 185 109 12 0 22 5 22
10 0 6 11 10 25 10 14 0 25 -4 25 -10 0 -5 9 -10 20 -10 11 0 20 4 20 9 0 5
13 14 29 19 16 6 35 20 41 32 9 17 17 20 37 15 14 -3 41 -1 60 6 40 13 83 5
83 -16 0 -8 5 -15 10 -15 19 0 -6 -35 -71 -99 -34 -33 -65 -61 -68 -61 -3 0
-22 -14 -41 -30 -19 -17 -43 -33 -52 -36 -10 -3 -18 -9 -18 -14 0 -5 -17 -17
-37 -27 -21 -9 -45 -25 -55 -35 -10 -10 -25 -18 -33 -18 -7 0 -18 -6 -22 -13
-4 -7 -28 -21 -53 -31 -25 -10 -47 -21 -50 -24 -7 -10 -102 -42 -122 -42 -10
0 -18 -4 -18 -10 0 -5 10 -10 23 -10 28 0 49 -24 72 -83 10 -26 21 -47 24 -47
4 0 15 -20 25 -45 11 -25 22 -45 25 -45 3 0 12 -13 19 -29 7 -16 22 -39 32
-51 11 -13 20 -28 20 -35 0 -6 8 -20 18 -31 9 -10 26 -38 36 -61 11 -24 22
-43 26 -43 3 0 14 -22 24 -50 10 -27 21 -50 25 -50 4 0 15 -22 25 -50 10 -27
21 -50 25 -50 4 0 15 -22 25 -50 10 -27 21 -50 25 -50 4 0 15 -22 25 -50 10
-27 21 -50 25 -50 3 0 15 -20 26 -45 11 -25 23 -45 27 -45 4 0 14 -16 22 -35
8 -19 19 -35 24 -35 5 0 15 -18 22 -41 8 -23 19 -43 26 -46 7 -2 15 -14 18
-26 3 -12 19 -38 36 -57 16 -19 30 -38 30 -42 0 -3 18 -25 40 -48 22 -23 40
-45 40 -50 0 -5 11 -17 25 -28 14 -11 25 -24 25 -29 0 -13 86 -99 118 -119 16
-9 35 -32 43 -51 7 -19 21 -39 31 -44 10 -5 18 -15 18 -22 0 -7 14 -28 30 -47
16 -19 30 -38 30 -41 0 -8 170 -179 179 -179 6 0 68 -52 107 -90 12 -11 26
-20 32 -20 6 0 17 -8 24 -17 13 -18 39 -37 68 -50 8 -4 23 -17 33 -30 10 -13
22 -23 27 -23 5 0 31 -21 59 -47 27 -27 55 -53 63 -59 22 -19 44 19 58 103 7
43 17 80 21 83 39 26 38 639 -1 670 -3 3 -15 51 -25 108 -10 56 -21 102 -25
102 -3 0 -15 33 -25 73 -10 39 -21 74 -25 77 -3 3 -14 31 -25 63 -11 31 -22
57 -25 57 -3 0 -14 20 -24 45 -11 25 -22 45 -26 45 -3 0 -14 23 -24 50 -10 28
-21 50 -25 50 -4 0 -14 19 -21 41 -8 23 -19 47 -25 53 -5 6 -18 27 -29 45 -24
43 -27 47 -141 161 -96 97 -158 152 -178 159 -6 2 -20 15 -30 28 -10 12 -24
23 -30 23 -7 0 -18 9 -25 20 -7 11 -17 20 -23 20 -16 0 -155 144 -174 179 -8
17 -13 31 -10 31 15 0 93 -37 109 -52 11 -10 25 -18 32 -18 7 0 19 -6 26 -13
7 -7 32 -21 56 -31 23 -11 42 -22 42 -26 0 -4 18 -13 41 -20 23 -8 43 -19 46
-26 2 -6 24 -19 49 -29 24 -9 44 -20 44 -24 0 -5 21 -16 47 -26 26 -10 56 -27
67 -37 11 -10 25 -18 32 -18 7 0 19 -6 26 -13 7 -7 32 -21 56 -31 23 -11 42
-22 42 -25 0 -4 20 -15 45 -26 25 -11 45 -23 45 -27 0 -4 16 -14 35 -22 19 -8
35 -19 35 -24 0 -4 23 -16 50 -26 28 -10 50 -21 50 -25 0 -4 23 -15 50 -25 28
-10 50 -22 50 -26 0 -5 20 -16 45 -26 25 -9 45 -19 45 -23 0 -3 18 -15 40 -25
22 -11 40 -22 40 -26 0 -4 16 -15 35 -24 19 -9 35 -21 35 -25 0 -5 8 -11 18
-15 26 -8 55 -29 70 -48 7 -10 19 -18 27 -18 8 0 18 -6 22 -14 4 -7 23 -21 41
-30 17 -9 32 -20 32 -24 0 -4 20 -16 45 -26 25 -11 45 -23 45 -28 0 -4 17 -16
37 -26 35 -16 46 -23 92 -64 11 -9 34 -24 50 -33 17 -8 31 -19 31 -23 0 -4 20
-16 44 -26 25 -10 47 -24 49 -30 3 -6 22 -17 43 -25 21 -8 44 -20 52 -27 7 -8
31 -17 53 -20 22 -4 46 -12 52 -18 17 -17 93 -46 120 -46 13 0 39 14 58 31 31
29 38 31 88 26 30 -3 57 -10 60 -14 6 -9 137 -43 165 -43 9 0 16 -4 16 -9 0
-14 168 -41 259 -41 l83 0 -6 28 c-4 15 -12 32 -19 37 -7 6 -21 28 -32 50 -11
22 -25 43 -31 47 -6 4 -16 25 -24 48 -7 22 -16 40 -20 40 -3 0 -14 26 -25 58
-11 31 -22 59 -26 62 -3 3 -14 28 -24 55 -11 28 -22 52 -25 55 -4 3 -15 24
-25 48 -11 23 -22 42 -27 42 -4 0 -14 16 -22 35 -8 19 -24 44 -35 57 -12 12
-21 26 -21 31 0 6 -9 19 -20 31 -52 56 -146 148 -215 211 -42 39 -89 82 -105
98 -15 15 -33 27 -38 27 -6 0 -17 8 -24 18 -7 10 -30 26 -50 35 -21 10 -38 22
-38 27 0 5 -16 17 -35 26 -19 9 -35 20 -35 24 0 5 -20 16 -45 26 -25 9 -45 20
-45 23 0 4 -22 15 -50 25 -27 10 -50 21 -50 25 0 4 -28 15 -62 25 -34 10 -67
24 -74 31 -7 7 -33 19 -58 26 -26 7 -46 17 -46 21 0 4 -27 15 -60 24 -33 9
-60 20 -60 23 0 4 -31 15 -70 26 -38 11 -70 22 -70 26 0 3 -28 14 -62 25 -35
10 -68 23 -74 29 -7 6 -37 17 -68 24 -31 7 -56 16 -56 20 0 5 -45 16 -100 26
-55 11 -100 22 -100 26 0 4 -15 10 -33 13 -19 3 -42 14 -53 24 -10 10 -30 26
-44 36 -28 20 -39 21 190 -4 51 -6 210 -6 395 0 315 9 667 -2 673 -21 2 -5 22
-9 45 -9 23 0 96 -7 162 -15 71 -9 203 -15 327 -15 114 0 208 -3 208 -8 0 -4
63 -16 140 -26 77 -11 140 -22 140 -26 0 -4 21 -11 46 -15 26 -3 53 -9 60 -12
27 -10 9 71 -23 105 -7 7 -13 20 -13 27 0 8 -8 20 -18 27 -10 7 -27 27 -38 43
-10 17 -27 36 -36 43 -10 7 -18 18 -18 24 0 5 -12 22 -27 38 -16 15 -53 55
-83 89 -30 33 -59 61 -64 61 -5 0 -19 10 -32 23 -43 41 -59 52 -102 71 -23 10
-42 22 -42 25 0 3 -19 15 -43 26 -23 11 -48 28 -55 37 -7 10 -19 18 -27 18 -8
0 -18 6 -22 13 -4 8 -29 22 -55 32 -27 10 -48 21 -48 25 0 19 -150 33 -300 27
-85 -4 -227 -2 -315 4 -173 12 -371 -1 -390 -24 -5 -7 -22 -20 -38 -30 -15
-10 -49 -40 -74 -67 -26 -28 -50 -50 -55 -50 -4 0 -20 -12 -35 -26 -15 -14
-35 -32 -44 -39 -15 -14 -105 -38 -131 -34 -34 4 -58 -2 -58 -16 0 -8 -6 -15
-14 -15 -8 0 -22 -3 -32 -7 -11 -4 -15 -3 -11 4 4 7 -14 5 -43 -5 -27 -9 -50
-19 -50 -24 0 -4 -5 -8 -10 -8 -6 0 -8 11 -4 26 l7 27 -32 -19 c-17 -10 -31
-21 -31 -25 0 -10 -48 -20 -118 -25 -84 -6 -132 -15 -132 -25 0 -15 -28 -10
-34 6 -6 16 10 52 31 70 7 5 14 21 16 34 4 23 52 81 68 81 4 0 27 20 51 44 25
24 54 47 65 50 12 4 24 13 27 21 3 8 11 15 18 15 8 0 32 19 54 43 58 61 117
82 163 58 13 -7 21 -3 36 16 55 71 136 142 170 149 19 3 35 10 35 14 0 4 11
11 25 14 23 6 25 11 25 59 0 59 24 160 40 165 5 2 10 9 10 16 0 17 70 86 87
86 7 0 13 4 13 9 0 5 15 14 33 20 18 6 40 20 49 30 33 39 51 73 42 79 -11 8
-11 162 0 209 4 17 13 34 20 36 7 3 19 27 26 54 7 26 19 52 27 56 7 4 13 12
13 18 0 5 -9 1 -21 -10 -11 -10 -31 -21 -44 -23 -22 -5 -23 -2 -18 23 3 16 0
35 -6 43 -6 7 -9 22 -5 32 5 16 4 16 -5 4 -6 -8 -11 -23 -11 -32 0 -10 -4 -18
-10 -18 -5 0 -10 -7 -10 -17 0 -24 -33 -127 -42 -131 -5 -2 -8 -10 -8 -17 0
-19 -33 -119 -41 -125 -4 -3 -14 -22 -23 -43 -8 -21 -22 -45 -31 -53 -8 -9
-15 -21 -15 -27 0 -7 -14 -28 -30 -47 -17 -19 -32 -42 -35 -52 -3 -9 -12 -19
-20 -22 -19 -7 -19 -1 1 18 8 9 11 16 6 16 -5 0 -18 -12 -28 -27 -9 -15 -28
-39 -41 -53 -13 -14 -23 -29 -23 -33 0 -5 -11 -18 -25 -29 -14 -11 -25 -25
-25 -33 0 -7 -11 -16 -25 -19 -30 -8 -75 -54 -75 -78 0 -10 -5 -18 -10 -18 -6
0 -24 -13 -40 -30 -17 -18 -40 -30 -55 -30 -17 0 -29 -8 -37 -25 -6 -14 -15
-25 -20 -25 -4 0 -16 -16 -26 -36 -17 -38 -85 -114 -100 -114 -12 0 -82 -69
-82 -80 0 -6 -7 -10 -14 -10 -8 0 -27 -11 -42 -25 -37 -34 -64 -33 -65 3 0 15
-3 21 -6 15 -2 -7 -11 -13 -19 -13 -8 0 -22 -8 -32 -17 -48 -45 -106 -83 -127
-83 -8 0 -15 -3 -15 -7 0 -9 -49 -33 -67 -33 -7 0 -13 9 -13 20 0 11 -5 20
-11 20 -7 0 -9 -9 -6 -21 3 -12 3 -18 0 -15 -7 7 -27 -14 -36 -36 -3 -10 -15
-18 -26 -18 -11 0 -25 -9 -31 -19 -6 -12 -26 -22 -50 -26 -23 -4 -49 -16 -59
-27 -11 -11 -25 -21 -32 -22 -8 -2 -33 -7 -56 -11 -24 -4 -43 -11 -43 -15 0
-12 -83 -40 -117 -40 -17 0 -33 -6 -36 -14 -7 -18 -53 -27 -167 -32 -52 -3
-97 -9 -101 -15 -4 -7 -8 -7 -10 -2 -2 6 -59 13 -125 16 -125 6 -244 25 -244
39 0 4 -5 8 -11 8 -22 0 -81 34 -110 63 -39 38 -25 49 54 44 42 -2 56 0 53 9
-22 57 -10 211 19 244 57 64 102 101 136 111 21 7 39 15 39 19 0 12 103 30
154 28 39 -3 50 1 60 17 6 11 14 22 18 25 4 3 11 17 17 32 8 20 7 28 -5 32
-21 8 -42 -3 -49 -25 -8 -24 -46 -25 -63 -1 -10 13 -23 17 -48 14 -21 -3 -34
0 -34 7 0 6 -6 11 -14 11 -8 0 -16 10 -18 23 -3 20 -9 22 -61 24 -47 1 -63 6
-80 25 -12 13 -30 24 -40 26 -14 2 -17 -5 -17 -50 0 -61 -29 -199 -45 -210 -6
-5 -5 -11 5 -18 10 -7 12 -12 4 -17 -6 -5 -14 -17 -18 -29 -3 -11 -14 -29 -24
-40 -9 -11 -22 -28 -28 -39 -11 -19 -54 -29 -54 -12 0 5 -10 7 -23 5 -20 -4
-23 -1 -19 19 2 13 9 23 16 23 6 0 5 4 -3 9 -28 18 -106 -12 -117 -44 -6 -17
-8 -15 -11 13 -5 36 -22 41 -43 12 -9 -12 -26 -20 -43 -20 -24 0 -28 3 -24 20
7 28 -18 26 -38 -2 -14 -21 -24 -23 -105 -24 l-90 -1 0 29 c0 25 -4 28 -31 28
-27 0 -30 -2 -19 -15 6 -8 10 -20 7 -27 -4 -9 -6 -9 -6 2 -1 8 -14 27 -29 42
-21 19 -35 25 -55 21 -15 -3 -27 -9 -27 -14 0 -5 -9 -9 -20 -9 -11 0 -20 4
-20 8 0 5 -19 16 -42 25 -30 12 -45 14 -55 6 -7 -7 -28 -9 -48 -5 -19 3 -52 9
-72 12 -21 4 -41 12 -45 18 -6 8 -8 7 -8 -1 0 -8 -14 -13 -34 -13 -27 0 -36 5
-42 22 -7 24 -28 48 -41 48 -5 0 -13 -10 -18 -22 -17 -38 -68 -29 -114 20 -21
22 -41 46 -44 55 -3 8 -22 17 -41 21 -22 4 -36 13 -36 21 0 8 -8 15 -17 16
-16 0 -16 1 1 8 17 7 17 8 2 24 -10 9 -21 17 -26 17 -5 0 -12 9 -15 20 -7 21
-45 28 -45 8 0 -21 -12 1 -19 34 -4 19 -13 33 -21 34 -34 1 -62 17 -71 41 -7
18 -15 24 -28 20 -21 -5 -81 53 -81 78 0 8 -6 18 -12 22 -15 9 -36 41 -44 66
-7 19 -20 23 -26 6 -2 -6 -10 5 -18 25 -7 20 -20 36 -27 36 -7 0 -13 7 -13 15
0 8 -5 15 -10 15 -6 0 -8 -11 -4 -25 4 -18 2 -25 -8 -25 -8 0 -21 11 -28 25
-7 14 -22 25 -32 25 -10 0 -18 7 -18 16 0 9 -9 18 -20 21 -11 3 -20 12 -20 19
0 19 -16 18 -24 -1 -10 -28 -33 -15 -46 25 -7 22 -17 40 -22 40 -4 0 -8 11 -8
25 0 31 -20 33 -21 3 -1 -21 -2 -21 -6 -3 -3 11 -11 23 -18 28 -8 4 -19 23
-25 42 -6 19 -15 35 -20 35 -4 0 -16 32 -26 70 -10 39 -21 70 -25 70 -33 0
-49 561 -20 705 8 39 17 72 20 75 4 3 15 39 26 80 10 41 24 80 31 87 17 18 26
96 14 127 -5 15 -10 61 -10 102 0 67 -10 94 -23 62 -3 -7 -3 3 0 22 4 19 10
37 15 38 4 2 8 9 8 15 0 23 35 127 42 127 4 0 8 11 8 25 0 18 -5 25 -20 25
-22 0 -27 29 -8 48 6 6 9 15 5 19 -4 3 -7 2 -7 -3z"/>
<path d="M8130 10887 c0 -9 6 -20 13 -24 12 -8 31 -35 44 -63 4 -8 15 -24 25
-34 11 -12 18 -35 18 -57 0 -21 7 -44 15 -53 20 -19 45 -79 45 -106 0 -11 4
-20 9 -20 5 0 12 -97 16 -215 4 -118 11 -215 16 -215 5 0 9 7 9 15 0 8 4 15 8
15 26 0 47 310 22 325 -5 3 -10 17 -10 31 0 13 -4 24 -10 24 -5 0 -10 8 -10
19 0 23 -31 124 -41 131 -3 3 -14 23 -25 45 -20 43 -37 66 -71 100 -13 12 -23
26 -23 31 0 5 -11 22 -25 38 -18 20 -25 24 -25 13z"/>
<path d="M7660 10791 c0 -12 39 -25 47 -17 4 3 -1 6 -10 6 -9 0 -17 5 -17 10
0 6 -4 10 -10 10 -5 0 -10 -4 -10 -9z"/>
<path d="M8048 10771 c11 -7 11 -9 -2 -14 -18 -7 -22 -27 -5 -27 20 0 39 26
26 39 -6 6 -16 11 -21 11 -6 0 -5 -4 2 -9z"/>
<path d="M5455 10660 c-16 -7 -17 -9 -3 -9 9 -1 20 4 23 9 7 11 7 11 -20 0z"/>
<path d="M8490 10540 c0 -16 4 -30 9 -30 5 0 12 -10 14 -22 2 -13 5 1 6 30 1
40 -2 52 -14 52 -10 0 -15 -10 -15 -30z"/>
<path d="M5250 10500 c-13 -9 -13 -11 0 -20 23 -15 42 -12 38 7 -4 21 -19 26
-38 13z"/>
<path d="M5123 10453 c-9 -25 -97 -108 -138 -131 -17 -9 -16 -10 5 -17 13 -4
30 -14 38 -21 18 -18 32 -18 32 1 0 15 30 86 41 95 9 8 40 90 34 90 -3 0 -9
-8 -12 -17z"/>
<path d="M3825 10320 c-4 -17 -5 -34 -2 -36 2 -3 7 10 11 27 8 42 0 50 -9 9z"/>
<path d="M8028 10119 c3 -25 0 -39 -8 -39 -13 0 -5 -58 11 -74 5 -6 9 -18 9
-28 0 -10 5 -18 10 -18 6 0 16 -12 22 -27 l12 -28 4 24 c2 13 10 31 18 38 17
18 18 39 2 50 -17 11 -48 67 -48 87 0 9 -4 16 -10 16 -5 0 -10 6 -10 14 0 8
-3 17 -8 20 -4 2 -6 -13 -4 -35z"/>
<path d="M8565 9962 c-12 -10 -27 -33 -34 -52 -8 -19 -19 -39 -25 -45 -6 -5
-20 -28 -31 -50 -11 -22 -28 -46 -37 -53 -10 -7 -18 -20 -18 -28 0 -8 -7 -17
-16 -21 -8 -3 -20 -17 -25 -30 -5 -14 -17 -27 -27 -30 -10 -2 -22 -14 -27 -26
-9 -18 -17 -22 -53 -19 -37 2 -45 -1 -49 -18 -3 -11 -10 -20 -16 -20 -23 0
-76 -73 -87 -121 -7 -27 -15 -49 -19 -49 -4 0 -14 -18 -21 -41 -8 -22 -22 -45
-32 -50 -10 -5 -18 -16 -18 -24 0 -8 -8 -20 -18 -27 -10 -7 -27 -29 -38 -48
-10 -19 -22 -37 -26 -40 -3 -3 -14 -24 -23 -48 -10 -23 -21 -42 -25 -42 -4 0
-15 -16 -24 -35 -9 -19 -21 -35 -26 -35 -6 0 -10 -7 -10 -15 0 -7 -7 -18 -16
-23 -10 -6 -13 -12 -6 -16 6 -3 24 7 40 24 25 24 39 30 75 30 43 0 45 1 51 35
4 19 11 35 16 35 6 0 10 9 10 20 0 39 28 87 76 134 27 25 54 46 61 46 7 0 13
4 13 9 0 12 56 31 90 31 24 0 28 4 33 39 5 39 11 50 54 97 12 13 23 31 25 40
2 9 12 22 22 28 11 6 27 18 37 26 10 8 30 24 45 35 42 31 124 113 124 124 0 5
-4 12 -9 15 -19 12 -22 101 -6 175 8 41 14 75 13 77 -2 1 -12 -5 -23 -14z"/>
<path d="M3630 9740 c-1 -8 -2 -19 -1 -24 1 -4 -8 -17 -20 -27 -12 -10 -17
-19 -12 -19 12 0 27 -79 39 -192 3 -38 10 -68 15 -68 5 0 9 -18 9 -40 0 -47
29 -170 40 -170 4 0 15 -26 26 -57 10 -32 23 -61 27 -64 5 -3 15 -28 23 -55
l14 -49 -7 50 c-12 93 -20 140 -22 123 0 -10 -5 -18 -10 -18 -10 0 -41 84 -41
112 0 10 -4 18 -9 18 -13 0 -30 134 -36 295 -3 82 -9 152 -14 155 -5 3 -11 14
-14 25 -3 13 -5 15 -7 5z"/>
<path d="M8252 9635 c-11 -12 -10 -15 3 -15 8 0 15 7 15 15 0 18 -2 18 -18 0z"/>
<path d="M6290 9600 c0 -11 5 -20 10 -20 6 0 10 9 10 20 0 11 -4 20 -10 20 -5
0 -10 -9 -10 -20z"/>
<path d="M6290 9494 c0 -19 5 -34 10 -34 6 0 10 -20 10 -44 0 -49 -32 -96 -66
-96 -17 0 -17 -1 2 -18 11 -11 31 -22 44 -25 14 -3 37 -9 53 -13 l27 -6 0 60
c0 51 4 65 25 88 29 32 32 44 7 44 -20 0 -72 45 -72 63 0 7 -9 13 -20 14 -16
1 -20 -4 -20 -33z"/>
<path d="M3812 8940 c0 -14 2 -19 5 -12 2 6 2 18 0 25 -3 6 -5 1 -5 -13z"/>
<path d="M9196 8529 c-11 -10 -17 -21 -14 -24 7 -7 38 23 38 36 0 12 -2 11
-24 -12z"/>
<path d="M3476 8171 c-3 -5 -31 -12 -61 -16 -30 -3 -55 -11 -55 -16 0 -5 -12
-9 -27 -9 -46 -1 -157 -28 -161 -39 -2 -6 -10 -11 -17 -11 -25 0 -108 -31
-122 -46 -8 -8 -21 -14 -29 -14 -8 0 -22 -8 -32 -18 -10 -10 -34 -26 -55 -35
-20 -10 -37 -22 -37 -27 0 -5 -9 -11 -19 -15 -11 -3 -41 -26 -67 -51 -26 -24
-50 -44 -54 -44 -4 0 -47 -40 -96 -90 -49 -49 -92 -90 -97 -90 -4 0 -23 -17
-42 -37 -19 -21 -59 -65 -89 -98 -31 -33 -56 -65 -56 -71 0 -7 -7 -14 -15 -18
-19 -7 -20 -26 -1 -26 8 0 16 -5 18 -11 5 -14 141 -38 221 -38 31 -1 57 -5 57
-11 0 -5 18 -10 40 -10 22 0 40 5 40 10 0 6 51 10 134 10 136 0 366 24 376 39
3 5 28 11 55 14 28 3 101 11 163 18 61 6 112 15 112 19 0 4 35 11 78 14 111 9
246 28 252 36 3 4 43 12 90 20 69 10 124 10 276 1 104 -6 231 -11 282 -11 55
0 92 -4 92 -10 0 -5 9 -10 20 -10 28 0 90 -27 90 -39 0 -5 -14 -14 -30 -20
-17 -5 -33 -17 -36 -26 -3 -8 -12 -15 -19 -15 -8 0 -22 -10 -32 -23 -10 -12
-29 -29 -43 -38 -28 -18 -200 -189 -200 -198 0 -4 -25 -33 -55 -64 -30 -31
-55 -61 -55 -65 0 -5 -11 -22 -25 -38 -13 -16 -30 -36 -38 -44 -7 -9 -21 -32
-30 -53 -10 -20 -22 -37 -26 -37 -5 0 -16 -20 -25 -45 -10 -25 -22 -45 -27
-45 -5 0 -9 -5 -9 -11 0 -17 -33 -82 -52 -103 -10 -11 -18 -24 -18 -29 0 -5
-29 -38 -65 -73 -36 -36 -65 -68 -65 -72 0 -4 -22 -28 -48 -53 -26 -25 -56
-62 -66 -82 -9 -20 -21 -37 -25 -37 -5 0 -16 -20 -25 -45 -10 -25 -22 -45 -26
-45 -5 0 -17 -25 -26 -55 -10 -30 -21 -55 -26 -55 -4 0 -15 -25 -23 -55 -9
-30 -21 -55 -26 -55 -5 0 -9 -6 -9 -14 0 -19 -32 -120 -40 -126 -4 -3 -15 -36
-25 -75 -10 -38 -22 -72 -26 -75 -4 -3 -15 -63 -25 -135 -10 -71 -21 -132 -25
-135 -3 -3 -9 -43 -13 -90 -4 -47 -9 -108 -12 -137 -6 -49 -5 -51 15 -46 12 3
21 9 21 13 0 4 23 16 50 26 28 10 50 21 50 25 0 3 21 14 46 24 26 10 55 26 65
36 11 11 26 19 34 19 7 0 18 6 22 13 4 6 26 21 48 32 22 11 42 23 45 26 3 3
20 14 38 23 17 9 32 20 32 24 0 5 16 14 35 22 19 8 42 24 50 37 9 13 20 23 26
23 6 0 50 39 98 88 90 89 113 108 143 118 9 3 19 12 22 20 3 7 26 19 51 25 25
6 45 15 45 20 0 4 10 11 23 14 12 4 33 18 47 31 14 13 64 61 112 106 49 46 88
87 88 91 0 8 91 98 190 186 33 30 60 58 60 63 0 4 91 99 203 211 111 112 213
218 227 236 14 18 30 38 36 45 6 6 19 25 29 41 11 17 28 36 37 43 10 7 18 18
18 23 0 9 126 139 135 139 2 0 1 -9 -2 -20 -3 -11 -9 -20 -14 -20 -5 0 -9 -8
-9 -17 0 -25 -25 -94 -37 -102 -10 -6 -43 -104 -43 -126 0 -7 -5 -15 -10 -17
-6 -2 -17 -32 -26 -68 -10 -35 -22 -70 -29 -76 -6 -6 -17 -37 -24 -68 -7 -31
-16 -56 -20 -56 -4 0 -16 -44 -26 -97 -11 -54 -24 -101 -30 -105 -14 -10 -14
-356 1 -366 6 -4 14 -50 18 -102 9 -132 27 -250 37 -250 5 0 9 -9 9 -20 0 -35
31 -175 40 -180 5 -3 16 -37 26 -75 9 -39 21 -72 24 -75 4 -3 16 -33 25 -67
10 -35 21 -63 24 -63 4 0 14 -16 21 -36 18 -44 45 -61 67 -42 36 29 93 93 99
110 3 10 10 18 15 18 5 0 17 16 26 35 9 19 20 35 25 35 4 0 15 18 24 40 9 22
20 40 24 40 5 0 16 18 26 40 10 22 21 40 25 40 4 0 15 20 25 45 9 25 19 45 23
45 3 0 15 18 25 40 11 22 23 40 27 40 4 0 13 16 19 35 6 19 17 38 24 42 7 5
18 23 26 42 8 19 46 67 86 108 40 40 76 83 80 95 3 12 15 30 25 41 10 11 21
33 25 50 3 17 12 36 19 43 7 7 19 33 26 58 7 26 16 46 20 46 4 0 15 23 25 50
10 28 21 50 25 50 4 0 15 25 24 55 8 30 19 55 24 55 4 0 16 25 26 55 11 30 22
55 26 55 4 0 15 32 25 70 10 39 21 70 24 70 4 0 15 36 24 80 10 44 21 80 25
80 5 0 16 53 26 118 10 64 22 119 25 122 4 3 14 72 22 155 9 91 20 151 27 153
6 2 11 19 11 38 0 29 4 35 33 44 31 9 30 10 -11 5 -23 -3 -76 -8 -117 -12 -41
-3 -75 -10 -75 -14 0 -5 -34 -9 -75 -9 -43 0 -75 4 -75 10 0 6 -19 10 -42 10
-79 0 -218 22 -218 35 0 7 -33 18 -82 28 -44 9 -84 20 -87 25 -10 15 -166 42
-242 42 -38 0 -104 -7 -147 -16 -100 -21 -450 -16 -497 6 -16 8 -32 17 -35 21
-3 4 -38 12 -79 20 -40 7 -79 19 -86 26 -8 7 -20 13 -28 13 -25 0 -117 33
-117 41 0 5 -25 16 -55 24 -30 9 -55 21 -55 26 0 6 -17 17 -37 26 -21 8 -42
21 -46 29 -4 8 -17 14 -27 14 -11 0 -26 11 -35 23 -8 13 -33 30 -55 37 -22 7
-40 16 -40 20 0 4 -20 11 -45 15 -27 4 -56 16 -72 31 -14 13 -29 24 -33 24 -3
0 -15 8 -26 18 -24 22 -69 42 -94 42 -10 0 -25 6 -32 13 -7 6 -29 21 -48 31
-19 11 -44 28 -55 38 -11 10 -30 21 -42 24 -13 4 -23 10 -23 14 0 4 -8 10 -17
14 -27 8 -56 29 -71 49 -7 9 -18 17 -24 17 -6 0 -30 20 -54 45 -23 25 -47 45
-52 45 -6 0 -17 8 -24 18 -27 36 -128 67 -142 43z"/>
<path d="M5190 7540 c0 -5 5 -10 10 -10 6 0 10 5 10 10 0 6 -4 10 -10 10 -5 0
-10 -4 -10 -10z"/>
<path d="M6738 7273 c7 -3 16 -2 19 1 4 3 -2 6 -13 5 -11 0 -14 -3 -6 -6z"/>
<path d="M5925 3151 c-11 -5 -53 -14 -92 -21 -61 -10 -73 -15 -73 -31 0 -13 7
-19 24 -19 49 0 56 -20 56 -166 0 -74 -2 -134 -4 -134 -2 0 -20 7 -39 15 -111
46 -260 -23 -324 -149 -53 -105 -38 -247 35 -328 86 -96 190 -102 286 -17 30
27 47 36 50 27 27 -100 34 -102 139 -50 71 35 84 45 80 62 -4 15 -13 19 -42
17 l-36 -2 -3 389 c-2 426 -3 429 -57 407z m-145 -426 c54 -28 60 -47 60 -187
l0 -127 -35 -26 c-77 -59 -156 -40 -199 47 -47 93 -33 222 30 277 40 35 95 41
144 16z"/>
<path d="M4940 3129 c-36 -10 -75 -18 -87 -18 -37 -1 -30 -40 8 -48 20 -4 34
-14 40 -30 5 -14 8 -174 7 -371 l-3 -347 -42 -13 c-31 -10 -43 -19 -43 -33 0
-18 9 -19 155 -19 146 0 155 1 155 19 0 14 -12 23 -42 33 l-43 13 -5 415 c-4
359 -7 415 -20 416 -8 1 -44 -7 -80 -17z"/>
<path d="M10150 3129 c-36 -10 -75 -18 -87 -18 -37 -1 -30 -40 7 -48 17 -3 35
-14 40 -24 6 -11 9 -155 8 -371 l-3 -353 -35 -11 c-23 -8 -36 -19 -38 -33 -3
-21 -1 -21 143 -21 145 0 146 0 143 22 -2 15 -13 25 -35 32 l-33 9 0 157 0
158 37 28 c85 64 158 63 175 -3 5 -18 7 -101 6 -185 l-3 -153 -35 -11 c-23 -8
-36 -19 -38 -33 -3 -21 -1 -21 142 -21 139 0 146 1 146 20 0 13 -12 25 -34 34
l-34 14 -4 199 c-3 162 -6 204 -20 229 -19 34 -71 64 -112 64 -39 0 -115 -29
-173 -66 l-53 -34 0 208 c0 206 -4 235 -34 231 -6 -1 -40 -10 -76 -20z"/>
<path d="M3544 3040 c-28 -11 -54 -48 -54 -77 0 -60 92 -83 148 -36 71 61 -4
150 -94 113z"/>
<path d="M3893 2958 l-53 -40 0 -59 c0 -50 -3 -59 -18 -59 -23 0 -66 -45 -57
-59 3 -6 21 -11 40 -11 l33 0 4 -197 c3 -187 4 -200 26 -235 47 -76 120 -73
252 13 54 35 59 41 50 59 -13 24 -8 24 -64 -1 -26 -11 -59 -19 -74 -17 -44 5
-52 35 -52 216 l0 162 39 0 c21 0 53 -5 71 -12 31 -10 35 -9 62 21 44 49 27
61 -83 61 l-88 0 -3 97 c-4 117 -9 121 -85 61z"/>
<path d="M7120 2994 c-14 -2 -62 -9 -108 -15 -86 -12 -97 -17 -87 -48 5 -16
13 -18 45 -14 l40 6 0 -302 0 -303 -40 -15 c-27 -11 -40 -22 -40 -35 0 -17 11
-18 160 -18 152 0 160 1 160 19 0 15 -12 23 -47 33 l-48 14 -3 312 -2 312 53
0 c62 0 130 -31 161 -72 28 -39 33 -128 11 -179 -26 -57 -72 -83 -141 -77 -58
5 -66 -2 -40 -38 21 -29 145 -27 202 3 91 48 137 119 137 213 0 91 -45 150
-144 186 -43 15 -216 27 -269 18z"/>
<path d="M802 2968 c2 -14 15 -25 38 -33 l35 -12 0 -304 0 -304 -35 -11 c-23
-8 -36 -19 -38 -33 -3 -21 -1 -21 147 -21 140 0 151 1 151 18 0 13 -13 24 -40
35 l-40 15 0 141 0 141 155 0 155 0 0 -141 0 -141 -40 -15 c-27 -11 -40 -22
-40 -35 0 -17 11 -18 150 -18 139 0 150 1 150 18 0 13 -13 24 -40 35 l-40 16
2 302 3 302 35 12 c23 8 36 19 38 33 3 22 2 22 -148 22 -149 0 -151 0 -148
-21 2 -14 15 -25 38 -33 l35 -11 3 -127 3 -128 -156 0 -156 0 3 127 3 126 35
12 c23 8 36 19 38 33 3 22 2 22 -148 22 -150 0 -151 0 -148 -22z"/>
<path d="M1829 2795 c-26 -8 -69 -35 -97 -60 -149 -134 -127 -379 42 -468 59
-30 175 -30 233 1 63 33 106 74 139 134 26 47 29 63 29 138 0 94 -13 129 -69
188 -66 71 -179 98 -277 67z m121 -70 c18 -9 39 -36 56 -72 24 -48 28 -69 28
-142 0 -139 -27 -189 -107 -198 -38 -5 -48 -1 -80 26 -46 41 -67 104 -67 200
0 98 13 144 51 175 35 30 76 33 119 11z"/>
<path d="M2398 2796 c-83 -31 -120 -72 -122 -136 -1 -55 26 -86 120 -141 116
-68 154 -104 154 -145 0 -47 -34 -68 -97 -61 -39 4 -54 12 -85 46 -21 22 -38
49 -38 59 0 23 -40 37 -52 19 -4 -7 -8 -44 -8 -83 0 -82 3 -85 115 -105 121
-23 245 20 277 94 7 18 13 53 13 79 0 40 -5 52 -34 82 -19 20 -71 54 -115 77
-93 49 -126 78 -126 113 0 49 80 74 128 40 12 -8 31 -33 42 -55 30 -57 55 -53
75 13 8 28 15 57 15 64 0 37 -192 67 -262 40z"/>
<path d="M2887 2795 c-21 -8 -61 -17 -88 -21 -38 -5 -49 -11 -49 -24 0 -12 10
-21 30 -25 17 -4 35 -15 40 -25 7 -12 9 -140 8 -342 l-3 -323 -35 -11 c-19 -6
-36 -16 -38 -23 -3 -8 41 -11 153 -11 119 0 156 3 153 12 -3 7 -18 15 -35 19
-16 3 -35 9 -41 13 -13 8 -18 270 -4 264 98 -50 127 -60 159 -55 79 13 173
116 203 221 18 64 9 180 -18 232 -30 59 -82 101 -136 109 -54 9 -99 -5 -167
-51 -28 -19 -53 -34 -55 -34 -2 0 -4 15 -4 33 0 30 -15 58 -29 56 -4 0 -23 -7
-44 -14z m253 -100 c48 -25 73 -78 78 -165 10 -167 -52 -222 -193 -169 l-55
20 0 135 0 134 42 30 c45 33 84 38 128 15z"/>
<path d="M4440 2794 c-67 -18 -154 -74 -180 -116 -35 -57 -7 -71 87 -43 44 13
52 20 58 45 8 37 39 60 81 60 47 0 69 -30 69 -97 l0 -56 -82 -18 c-108 -23
-161 -48 -200 -92 -40 -45 -51 -97 -32 -151 35 -98 150 -112 267 -31 l50 34 5
-28 c3 -16 14 -36 23 -46 21 -20 48 -15 129 28 43 23 60 38 60 52 0 17 -6 19
-33 17 -46 -5 -52 20 -52 213 0 161 0 164 -26 194 -42 50 -120 63 -224 35z
m120 -329 c0 -64 0 -65 -39 -90 -81 -54 -141 -40 -141 33 1 51 27 81 91 103
87 30 89 29 89 -46z"/>
<path d="M6313 2796 c-132 -42 -213 -169 -200 -313 15 -156 130 -256 275 -239
65 8 112 31 175 86 44 39 47 44 33 58 -14 14 -22 12 -77 -16 -134 -69 -239
-21 -263 121 l-7 37 144 0 c133 0 147 2 178 23 19 12 35 32 37 44 6 44 -20
107 -62 149 -61 61 -141 78 -233 50z m108 -66 c25 -14 49 -62 49 -100 l0 -30
-109 0 -109 0 7 33 c11 45 27 73 53 91 26 18 80 21 109 6z"/>
<path d="M7830 2794 c-67 -18 -154 -74 -180 -116 -35 -57 -7 -71 87 -43 44 13
52 20 58 45 8 37 39 60 81 60 47 0 69 -30 69 -97 l0 -56 -82 -18 c-108 -23
-161 -48 -200 -92 -40 -45 -51 -97 -32 -151 35 -98 150 -112 267 -31 l50 34 5
-28 c3 -16 14 -36 23 -46 21 -20 48 -15 129 28 43 23 60 38 60 52 0 17 -6 19
-33 17 -46 -5 -52 20 -52 213 0 161 0 164 -26 194 -42 50 -120 63 -224 35z
m120 -329 c0 -64 0 -65 -39 -90 -81 -54 -141 -40 -141 33 1 51 27 81 91 103
87 30 89 29 89 -46z"/>
<path d="M8320 2789 c-36 -10 -75 -18 -87 -18 -36 -1 -30 -38 8 -46 19 -4 34
-16 40 -32 5 -13 9 -103 9 -199 l0 -176 -40 -15 c-27 -11 -40 -22 -40 -35 0
-17 11 -18 160 -18 151 0 160 1 160 19 0 15 -12 22 -50 31 l-50 12 0 142 c0
143 0 143 30 184 63 87 132 81 147 -12 4 -29 10 -36 28 -36 24 0 35 27 55 135
11 59 1 71 -65 80 -54 9 -107 -13 -162 -68 l-43 -41 0 45 c0 40 -14 72 -29 68
-4 -1 -35 -10 -71 -20z"/>
<path d="M8960 2794 c-67 -18 -154 -74 -180 -116 -35 -57 -7 -71 87 -43 44 13
52 20 58 45 8 37 39 60 81 60 47 0 69 -30 69 -97 l0 -56 -82 -18 c-108 -23
-161 -48 -200 -92 -40 -45 -51 -97 -32 -151 35 -98 150 -112 267 -31 l50 34 5
-28 c3 -16 14 -36 23 -46 21 -20 48 -15 129 28 43 23 60 38 60 52 0 17 -6 19
-33 17 -46 -5 -52 20 -52 213 0 161 0 164 -26 194 -42 50 -120 63 -224 35z
m120 -329 c0 -64 0 -65 -39 -90 -81 -54 -141 -40 -141 33 1 51 27 81 91 103
87 30 89 29 89 -46z"/>
<path d="M9500 2800 c-8 -5 -48 -15 -87 -22 -60 -10 -73 -15 -73 -30 0 -13 10
-20 30 -24 16 -4 34 -12 40 -19 7 -8 9 -81 8 -201 l-3 -189 -35 -11 c-23 -8
-36 -19 -38 -33 -3 -21 -1 -21 143 -21 145 0 146 0 143 22 -2 15 -13 25 -35
32 l-33 9 0 158 0 158 33 25 c49 37 112 57 142 46 39 -15 46 -49 43 -224 l-3
-161 -35 -11 c-23 -8 -36 -19 -38 -33 -3 -21 -1 -21 142 -21 139 0 146 1 146
20 0 13 -12 25 -34 34 l-34 14 -4 199 c-3 162 -6 204 -20 229 -19 34 -71 64
-112 64 -42 0 -118 -30 -178 -71 l-58 -39 0 43 c0 24 -5 48 -12 55 -14 14 -18
15 -38 2z"/>
<path d="M10949 2795 c-26 -8 -69 -35 -97 -60 -149 -134 -127 -379 42 -468 59
-30 175 -30 233 1 63 33 106 74 139 134 26 47 29 63 29 138 0 94 -13 129 -69
188 -66 71 -179 98 -277 67z m121 -70 c18 -9 39 -36 56 -72 24 -48 28 -69 28
-142 0 -139 -27 -189 -107 -198 -38 -5 -48 -1 -80 26 -46 41 -67 104 -67 200
0 98 13 144 51 175 35 30 76 33 119 11z"/>
<path d="M11518 2796 c-83 -31 -120 -72 -122 -136 -1 -55 26 -86 120 -141 116
-68 154 -104 154 -145 0 -47 -34 -68 -97 -61 -39 4 -54 12 -85 46 -21 22 -38
49 -38 59 0 23 -40 37 -52 19 -4 -7 -8 -44 -8 -83 0 -82 3 -85 115 -105 121
-23 245 20 277 94 7 18 13 53 13 79 0 40 -5 52 -34 82 -19 20 -71 54 -115 77
-93 49 -126 78 -126 113 0 49 80 74 128 40 12 -8 31 -33 42 -55 30 -57 55 -53
75 13 8 28 15 57 15 64 0 37 -192 67 -262 40z"/>
<path d="M3545 2780 c-33 -10 -72 -21 -87 -24 -36 -8 -40 -46 -5 -46 50 0 52
-6 55 -205 l3 -186 -40 -16 c-27 -11 -41 -22 -41 -35 0 -17 11 -18 145 -18
134 0 145 1 145 18 0 13 -13 24 -40 35 l-40 15 0 241 c0 274 9 252 -95 221z"/>
</g>
</svg>
