<?xml version="1.0" encoding="us-ascii" standalone="no"?><svg xmlns="http://www.w3.org/2000/svg" xmlns:xlink="http://www.w3.org/1999/xlink" contentStyleType="text/css" height="547px" preserveAspectRatio="none" style="width:914px;height:547px;background:#FFFFFF;" version="1.1" viewBox="0 0 914 547" width="914px" zoomAndPan="magnify"><defs/><g><rect fill="#FFFFFF" height="355.2188" style="stroke:#181818;stroke-width:1.0;" width="10" x="22.5" y="92.6094"/><rect fill="#FFFFFF" height="30.3516" style="stroke:#181818;stroke-width:1.0;" width="10" x="220.5" y="114.9609"/><rect fill="#FFFFFF" height="272.1641" style="stroke:#181818;stroke-width:1.0;" width="10" x="220.5" y="175.6641"/><rect fill="#FFFFFF" height="211.4609" style="stroke:#181818;stroke-width:1.0;" width="10" x="428" y="206.0156"/><rect fill="#FFFFFF" height="91.0547" style="stroke:#181818;stroke-width:1.0;" width="10" x="656" y="236.3672"/><rect fill="#FFFFFF" height="30.3516" style="stroke:#181818;stroke-width:1.0;" width="10" x="846" y="266.7188"/><line style="stroke:#181818;stroke-width:0.5;stroke-dasharray:5.0,5.0;" x1="27" x2="27" y1="82.6094" y2="465.8281"/><line style="stroke:#181818;stroke-width:0.5;stroke-dasharray:5.0,5.0;" x1="225" x2="225" y1="82.6094" y2="465.8281"/><line style="stroke:#181818;stroke-width:0.5;stroke-dasharray:5.0,5.0;" x1="433" x2="433" y1="82.6094" y2="465.8281"/><line style="stroke:#181818;stroke-width:0.5;stroke-dasharray:5.0,5.0;" x1="661" x2="661" y1="82.6094" y2="465.8281"/><line style="stroke:#181818;stroke-width:0.5;stroke-dasharray:5.0,5.0;" x1="851" x2="851" y1="82.6094" y2="465.8281"/><text fill="#000000" font-family="sans-serif" font-size="14" lengthAdjust="spacing" textLength="39" x="5" y="79.5332">Admin</text><ellipse cx="27.5" cy="13.5" fill="#E2E2F0" rx="8" ry="8" style="stroke:#181818;stroke-width:0.5;"/><path d="M27.5,21.5 L27.5,48.5 M14.5,29.5 L40.5,29.5 M27.5,48.5 L14.5,63.5 M27.5,48.5 L40.5,63.5 " fill="none" style="stroke:#181818;stroke-width:0.5;"/><text fill="#000000" font-family="sans-serif" font-size="14" lengthAdjust="spacing" textLength="39" x="5" y="479.3613">Admin</text><ellipse cx="27.5" cy="490.9375" fill="#E2E2F0" rx="8" ry="8" style="stroke:#181818;stroke-width:0.5;"/><path d="M27.5,498.9375 L27.5,525.9375 M14.5,506.9375 L40.5,506.9375 M27.5,525.9375 L14.5,540.9375 M27.5,525.9375 L40.5,540.9375 " fill="none" style="stroke:#181818;stroke-width:0.5;"/><rect fill="#E2E2F0" height="49.2188" rx="2.5" ry="2.5" style="stroke:#181818;stroke-width:0.5;" width="205" x="123" y="32.3906"/><text fill="#000000" font-family="sans-serif" font-size="14" lengthAdjust="spacing" textLength="86" x="182.5" y="53.9238">&#171;component&#187;</text><text fill="#000000" font-family="sans-serif" font-size="14" lengthAdjust="spacing" textLength="191" x="130" y="71.5332">operationtype.component.html</text><rect fill="#E2E2F0" height="49.2188" rx="2.5" ry="2.5" style="stroke:#181818;stroke-width:0.5;" width="205" x="123" y="464.8281"/><text fill="#000000" font-family="sans-serif" font-size="14" lengthAdjust="spacing" textLength="86" x="182.5" y="486.3613">&#171;component&#187;</text><text fill="#000000" font-family="sans-serif" font-size="14" lengthAdjust="spacing" textLength="191" x="130" y="503.9707">operationtype.component.html</text><rect fill="#E2E2F0" height="49.2188" rx="2.5" ry="2.5" style="stroke:#181818;stroke-width:0.5;" width="190" x="338" y="32.3906"/><text fill="#000000" font-family="sans-serif" font-size="14" lengthAdjust="spacing" textLength="86" x="390" y="53.9238">&#171;component&#187;</text><text fill="#000000" font-family="sans-serif" font-size="14" lengthAdjust="spacing" textLength="176" x="345" y="71.5332">operationtype.component.ts</text><rect fill="#E2E2F0" height="49.2188" rx="2.5" ry="2.5" style="stroke:#181818;stroke-width:0.5;" width="190" x="338" y="464.8281"/><text fill="#000000" font-family="sans-serif" font-size="14" lengthAdjust="spacing" textLength="86" x="390" y="486.3613">&#171;component&#187;</text><text fill="#000000" font-family="sans-serif" font-size="14" lengthAdjust="spacing" textLength="176" x="345" y="503.9707">operationtype.component.ts</text><rect fill="#E2E2F0" height="49.2188" rx="2.5" ry="2.5" style="stroke:#181818;stroke-width:0.5;" width="246" x="538" y="32.3906"/><text fill="#000000" font-family="sans-serif" font-size="14" lengthAdjust="spacing" textLength="86" x="618" y="53.9238">&#171;component&#187;</text><text fill="#000000" font-family="sans-serif" font-size="14" lengthAdjust="spacing" textLength="232" x="545" y="71.5332">operationtype.component.servcice.ts</text><rect fill="#E2E2F0" height="49.2188" rx="2.5" ry="2.5" style="stroke:#181818;stroke-width:0.5;" width="246" x="538" y="464.8281"/><text fill="#000000" font-family="sans-serif" font-size="14" lengthAdjust="spacing" textLength="86" x="618" y="486.3613">&#171;component&#187;</text><text fill="#000000" font-family="sans-serif" font-size="14" lengthAdjust="spacing" textLength="232" x="545" y="503.9707">operationtype.component.servcice.ts</text><rect fill="#E2E2F0" height="66.8281" rx="2.5" ry="2.5" style="stroke:#181818;stroke-width:0.5;" width="114" x="794" y="14.7813"/><text fill="#000000" font-family="sans-serif" font-size="14" lengthAdjust="spacing" textLength="86" x="808" y="36.3145">&#171;component&#187;</text><text fill="#000000" font-family="sans-serif" font-size="14" lengthAdjust="spacing" textLength="100" x="801" y="53.9238">&#171;C4 Container&#187;</text><text fill="#000000" font-family="sans-serif" font-size="14" lengthAdjust="spacing" textLength="55" x="823.5" y="71.5332">Backend</text><rect fill="#E2E2F0" height="66.8281" rx="2.5" ry="2.5" style="stroke:#181818;stroke-width:0.5;" width="114" x="794" y="464.8281"/><text fill="#000000" font-family="sans-serif" font-size="14" lengthAdjust="spacing" textLength="86" x="808" y="486.3613">&#171;component&#187;</text><text fill="#000000" font-family="sans-serif" font-size="14" lengthAdjust="spacing" textLength="100" x="801" y="503.9707">&#171;C4 Container&#187;</text><text fill="#000000" font-family="sans-serif" font-size="14" lengthAdjust="spacing" textLength="55" x="823.5" y="521.5801">Backend</text><rect fill="#FFFFFF" height="355.2188" style="stroke:#181818;stroke-width:1.0;" width="10" x="22.5" y="92.6094"/><rect fill="#FFFFFF" height="30.3516" style="stroke:#181818;stroke-width:1.0;" width="10" x="220.5" y="114.9609"/><rect fill="#FFFFFF" height="272.1641" style="stroke:#181818;stroke-width:1.0;" width="10" x="220.5" y="175.6641"/><rect fill="#FFFFFF" height="211.4609" style="stroke:#181818;stroke-width:1.0;" width="10" x="428" y="206.0156"/><rect fill="#FFFFFF" height="91.0547" style="stroke:#181818;stroke-width:1.0;" width="10" x="656" y="236.3672"/><rect fill="#FFFFFF" height="30.3516" style="stroke:#181818;stroke-width:1.0;" width="10" x="846" y="266.7188"/><polygon fill="#181818" points="208.5,110.9609,218.5,114.9609,208.5,118.9609,212.5,114.9609" style="stroke:#181818;stroke-width:1.0;"/><line style="stroke:#181818;stroke-width:1.0;" x1="32.5" x2="214.5" y1="114.9609" y2="114.9609"/><text fill="#000000" font-family="sans-serif" font-size="13" lengthAdjust="spacing" textLength="121" x="39.5" y="110.1045">select operation type</text><polygon fill="#181818" points="43.5,141.3125,33.5,145.3125,43.5,149.3125,39.5,145.3125" style="stroke:#181818;stroke-width:1.0;"/><line style="stroke:#181818;stroke-width:1.0;stroke-dasharray:2.0,2.0;" x1="37.5" x2="224.5" y1="145.3125" y2="145.3125"/><text fill="#000000" font-family="sans-serif" font-size="13" lengthAdjust="spacing" textLength="164" x="49.5" y="140.4561">operation type selected data</text><polygon fill="#181818" points="208.5,171.6641,218.5,175.6641,208.5,179.6641,212.5,175.6641" style="stroke:#181818;stroke-width:1.0;"/><line style="stroke:#181818;stroke-width:1.0;" x1="32.5" x2="214.5" y1="175.6641" y2="175.6641"/><text fill="#000000" font-family="sans-serif" font-size="13" lengthAdjust="spacing" textLength="144" x="39.5" y="170.8076">deactivate operation type</text><polygon fill="#181818" points="416,202.0156,426,206.0156,416,210.0156,420,206.0156" style="stroke:#181818;stroke-width:1.0;"/><line style="stroke:#181818;stroke-width:1.0;" x1="230.5" x2="422" y1="206.0156" y2="206.0156"/><text fill="#000000" font-family="sans-serif" font-size="13" lengthAdjust="spacing" textLength="159" x="237.5" y="201.1592">operation type to deactivate</text><polygon fill="#181818" points="644,232.3672,654,236.3672,644,240.3672,648,236.3672" style="stroke:#181818;stroke-width:1.0;"/><line style="stroke:#181818;stroke-width:1.0;" x1="438" x2="650" y1="236.3672" y2="236.3672"/><text fill="#000000" font-family="sans-serif" font-size="13" lengthAdjust="spacing" textLength="144" x="445" y="231.5107">deactivate operation type</text><polygon fill="#181818" points="834,262.7188,844,266.7188,834,270.7188,838,266.7188" style="stroke:#181818;stroke-width:1.0;"/><line style="stroke:#181818;stroke-width:1.0;" x1="666" x2="840" y1="266.7188" y2="266.7188"/><text fill="#000000" font-family="sans-serif" font-size="13" lengthAdjust="spacing" textLength="144" x="673" y="261.8623">deactivate operation type</text><polygon fill="#181818" points="677,293.0703,667,297.0703,677,301.0703,673,297.0703" style="stroke:#181818;stroke-width:1.0;"/><line style="stroke:#181818;stroke-width:1.0;stroke-dasharray:2.0,2.0;" x1="671" x2="850" y1="297.0703" y2="297.0703"/><text fill="#000000" font-family="sans-serif" font-size="13" lengthAdjust="spacing" textLength="151" x="683" y="292.2139">operation type deactivated</text><polygon fill="#181818" points="449,323.4219,439,327.4219,449,331.4219,445,327.4219" style="stroke:#181818;stroke-width:1.0;"/><line style="stroke:#181818;stroke-width:1.0;stroke-dasharray:2.0,2.0;" x1="443" x2="660" y1="327.4219" y2="327.4219"/><text fill="#000000" font-family="sans-serif" font-size="13" lengthAdjust="spacing" textLength="151" x="455" y="322.5654">operation type deactivated</text><line style="stroke:#181818;stroke-width:1.0;" x1="438" x2="480" y1="374.125" y2="374.125"/><line style="stroke:#181818;stroke-width:1.0;" x1="480" x2="480" y1="374.125" y2="387.125"/><line style="stroke:#181818;stroke-width:1.0;" x1="439" x2="480" y1="387.125" y2="387.125"/><polygon fill="#181818" points="449,383.125,439,387.125,449,391.125,445,387.125" style="stroke:#181818;stroke-width:1.0;"/><text fill="#000000" font-family="sans-serif" font-size="13" lengthAdjust="spacing" textLength="146" x="445" y="352.917">refresh operation type list</text><text fill="#000000" font-family="sans-serif" font-size="13" lengthAdjust="spacing" textLength="109" x="449" y="369.2686">whith updated data</text><polygon fill="#181818" points="241.5,413.4766,231.5,417.4766,241.5,421.4766,237.5,417.4766" style="stroke:#181818;stroke-width:1.0;"/><line style="stroke:#181818;stroke-width:1.0;stroke-dasharray:2.0,2.0;" x1="235.5" x2="432" y1="417.4766" y2="417.4766"/><text fill="#000000" font-family="sans-serif" font-size="13" lengthAdjust="spacing" textLength="151" x="247.5" y="412.6201">operation type deactivated</text><polygon fill="#181818" points="38.5,443.8281,28.5,447.8281,38.5,451.8281,34.5,447.8281" style="stroke:#181818;stroke-width:1.0;"/><line style="stroke:#181818;stroke-width:1.0;stroke-dasharray:2.0,2.0;" x1="32.5" x2="224.5" y1="447.8281" y2="447.8281"/><text fill="#000000" font-family="sans-serif" font-size="13" lengthAdjust="spacing" textLength="151" x="44.5" y="442.9717">operation type deactivated</text><!--SRC=[dP9DRiCW48Ntd6AKVRBgoh8ikRb6DbEOogWs89YcwkqB16FNRI8h6_w_zuO7ADbwwDMa3M20NZZqhALsQ1WERIljvAmXmrrtCTQHHzRMyBUZKzqw3JoDXuIdmLCA73BFuIawaBzABMcMIVCuVQZLjkSNE4Sfr8PyMdb5-K56POMtsrW8bAolo1IJwU7OvHisqM0aoL3hWLJGSZR7a1euHgHlDWSBJWeKCWf5ly7g0msizdQOTJ70FsPiLoeB5gFca90IrYwlETZI9xmajGkVKorzJgVQRyfUvDGweLcYLl3_fU_GS_stcyUs0K_ldiAm5HXru8k1hq7p09zEONsknDQFiCysPltWDzo1yhkkvhqGFm00]--></g></svg>