<?xml version="1.0" encoding="us-ascii" standalone="no"?><svg xmlns="http://www.w3.org/2000/svg" xmlns:xlink="http://www.w3.org/1999/xlink" contentStyleType="text/css" height="453px" preserveAspectRatio="none" style="width:770px;height:453px;background:#FFFFFF;" version="1.1" viewBox="0 0 770 453" width="770px" zoomAndPan="magnify"><defs/><g><rect fill="#FFFFFF" height="238.1094" style="stroke:#181818;stroke-width:1.0;" width="10" x="22.5" y="114.9609"/><rect fill="#FFFFFF" height="238.1094" style="stroke:#181818;stroke-width:1.0;" width="10" x="268.5" y="114.9609"/><rect fill="#FFFFFF" height="177.4063" style="stroke:#181818;stroke-width:1.0;" width="10" x="519.5" y="145.3125"/><rect fill="#FFFFFF" height="30" style="stroke:#181818;stroke-width:1.0;" width="10" x="730.5" y="219.0156"/><line style="stroke:#181818;stroke-width:0.5;stroke-dasharray:5.0,5.0;" x1="27" x2="27" y1="82.6094" y2="371.0703"/><line style="stroke:#181818;stroke-width:0.5;stroke-dasharray:5.0,5.0;" x1="273.5" x2="273.5" y1="82.6094" y2="371.0703"/><line style="stroke:#181818;stroke-width:0.5;stroke-dasharray:5.0,5.0;" x1="524" x2="524" y1="82.6094" y2="371.0703"/><line style="stroke:#181818;stroke-width:0.5;stroke-dasharray:5.0,5.0;" x1="735" x2="735" y1="82.6094" y2="371.0703"/><text fill="#000000" font-family="sans-serif" font-size="14" lengthAdjust="spacing" textLength="39" x="5" y="79.5332">Admin</text><ellipse cx="27.5" cy="13.5" fill="#E2E2F0" rx="8" ry="8" style="stroke:#181818;stroke-width:0.5;"/><path d="M27.5,21.5 L27.5,48.5 M14.5,29.5 L40.5,29.5 M27.5,48.5 L14.5,63.5 M27.5,48.5 L40.5,63.5 " fill="none" style="stroke:#181818;stroke-width:0.5;"/><text fill="#000000" font-family="sans-serif" font-size="14" lengthAdjust="spacing" textLength="39" x="5" y="384.6035">Admin</text><ellipse cx="27.5" cy="396.1797" fill="#E2E2F0" rx="8" ry="8" style="stroke:#181818;stroke-width:0.5;"/><path d="M27.5,404.1797 L27.5,431.1797 M14.5,412.1797 L40.5,412.1797 M27.5,431.1797 L14.5,446.1797 M27.5,431.1797 L40.5,446.1797 " fill="none" style="stroke:#181818;stroke-width:0.5;"/><rect fill="#E2E2F0" height="31.6094" rx="2.5" ry="2.5" style="stroke:#181818;stroke-width:0.5;" width="72" x="237.5" y="50"/><text fill="#000000" font-family="sans-serif" font-size="14" lengthAdjust="spacing" textLength="58" x="244.5" y="71.5332">Frontend</text><rect fill="#E2E2F0" height="31.6094" rx="2.5" ry="2.5" style="stroke:#181818;stroke-width:0.5;" width="72" x="237.5" y="370.0703"/><text fill="#000000" font-family="sans-serif" font-size="14" lengthAdjust="spacing" textLength="58" x="244.5" y="391.6035">Frontend</text><rect fill="#E2E2F0" height="31.6094" rx="2.5" ry="2.5" style="stroke:#181818;stroke-width:0.5;" width="69" x="490" y="50"/><text fill="#000000" font-family="sans-serif" font-size="14" lengthAdjust="spacing" textLength="55" x="497" y="71.5332">Backend</text><rect fill="#E2E2F0" height="31.6094" rx="2.5" ry="2.5" style="stroke:#181818;stroke-width:0.5;" width="69" x="490" y="370.0703"/><text fill="#000000" font-family="sans-serif" font-size="14" lengthAdjust="spacing" textLength="55" x="497" y="391.6035">Backend</text><text fill="#000000" font-family="sans-serif" font-size="14" lengthAdjust="spacing" textLength="61" x="702" y="79.5332">Database</text><path d="M717.5,29 C717.5,19 735.5,19 735.5,19 C735.5,19 753.5,19 753.5,29 L753.5,55 C753.5,65 735.5,65 735.5,65 C735.5,65 717.5,65 717.5,55 L717.5,29 " fill="#E2E2F0" style="stroke:#181818;stroke-width:1.5;"/><path d="M717.5,29 C717.5,39 735.5,39 735.5,39 C735.5,39 753.5,39 753.5,29 " fill="none" style="stroke:#181818;stroke-width:1.5;"/><text fill="#000000" font-family="sans-serif" font-size="14" lengthAdjust="spacing" textLength="61" x="702" y="384.6035">Database</text><path d="M717.5,397.6797 C717.5,387.6797 735.5,387.6797 735.5,387.6797 C735.5,387.6797 753.5,387.6797 753.5,397.6797 L753.5,423.6797 C753.5,433.6797 735.5,433.6797 735.5,433.6797 C735.5,433.6797 717.5,433.6797 717.5,423.6797 L717.5,397.6797 " fill="#E2E2F0" style="stroke:#181818;stroke-width:1.5;"/><path d="M717.5,397.6797 C717.5,407.6797 735.5,407.6797 735.5,407.6797 C735.5,407.6797 753.5,407.6797 753.5,397.6797 " fill="none" style="stroke:#181818;stroke-width:1.5;"/><rect fill="#FFFFFF" height="238.1094" style="stroke:#181818;stroke-width:1.0;" width="10" x="22.5" y="114.9609"/><rect fill="#FFFFFF" height="238.1094" style="stroke:#181818;stroke-width:1.0;" width="10" x="268.5" y="114.9609"/><rect fill="#FFFFFF" height="177.4063" style="stroke:#181818;stroke-width:1.0;" width="10" x="519.5" y="145.3125"/><rect fill="#FFFFFF" height="30" style="stroke:#181818;stroke-width:1.0;" width="10" x="730.5" y="219.0156"/><polygon fill="#181818" points="256.5,110.9609,266.5,114.9609,256.5,118.9609,260.5,114.9609" style="stroke:#181818;stroke-width:1.0;"/><line style="stroke:#181818;stroke-width:1.0;" x1="32.5" x2="262.5" y1="114.9609" y2="114.9609"/><text fill="#000000" font-family="sans-serif" font-size="13" lengthAdjust="spacing" textLength="222" x="39.5" y="110.1045">Selectes Operation Type to Deactivate</text><polygon fill="#181818" points="507.5,141.3125,517.5,145.3125,507.5,149.3125,511.5,145.3125" style="stroke:#181818;stroke-width:1.0;"/><line style="stroke:#181818;stroke-width:1.0;" x1="278.5" x2="513.5" y1="145.3125" y2="145.3125"/><text fill="#000000" font-family="sans-serif" font-size="13" lengthAdjust="spacing" textLength="222" x="285.5" y="140.4561">Selectes Operation Type to Deactivate</text><line style="stroke:#181818;stroke-width:1.0;" x1="529.5" x2="571.5" y1="175.6641" y2="175.6641"/><line style="stroke:#181818;stroke-width:1.0;" x1="571.5" x2="571.5" y1="175.6641" y2="188.6641"/><line style="stroke:#181818;stroke-width:1.0;" x1="530.5" x2="571.5" y1="188.6641" y2="188.6641"/><polygon fill="#181818" points="540.5,184.6641,530.5,188.6641,540.5,192.6641,536.5,188.6641" style="stroke:#181818;stroke-width:1.0;"/><text fill="#000000" font-family="sans-serif" font-size="13" lengthAdjust="spacing" textLength="177" x="536.5" y="170.8076">Set Operation Type as Inactive</text><polygon fill="#181818" points="718.5,215.0156,728.5,219.0156,718.5,223.0156,722.5,219.0156" style="stroke:#181818;stroke-width:1.0;"/><line style="stroke:#181818;stroke-width:1.0;" x1="529.5" x2="724.5" y1="219.0156" y2="219.0156"/><text fill="#000000" font-family="sans-serif" font-size="13" lengthAdjust="spacing" textLength="175" x="536.5" y="214.1592">Save Operation Type Changes</text><line style="stroke:#181818;stroke-width:1.0;" x1="529.5" x2="571.5" y1="279.3672" y2="279.3672"/><line style="stroke:#181818;stroke-width:1.0;" x1="571.5" x2="571.5" y1="279.3672" y2="292.3672"/><line style="stroke:#181818;stroke-width:1.0;" x1="530.5" x2="571.5" y1="292.3672" y2="292.3672"/><polygon fill="#181818" points="540.5,288.3672,530.5,292.3672,540.5,296.3672,536.5,292.3672" style="stroke:#181818;stroke-width:1.0;"/><text fill="#000000" font-family="sans-serif" font-size="13" lengthAdjust="spacing" textLength="187" x="536.5" y="274.5107">Log Operation Type Deactivation</text><polygon fill="#181818" points="289.5,318.7188,279.5,322.7188,289.5,326.7188,285.5,322.7188" style="stroke:#181818;stroke-width:1.0;"/><line style="stroke:#181818;stroke-width:1.0;" x1="283.5" x2="523.5" y1="322.7188" y2="322.7188"/><text fill="#000000" font-family="sans-serif" font-size="13" lengthAdjust="spacing" textLength="114" x="295.5" y="317.8623">Return Confirmation</text><polygon fill="#181818" points="38.5,349.0703,28.5,353.0703,38.5,357.0703,34.5,353.0703" style="stroke:#181818;stroke-width:1.0;"/><line style="stroke:#181818;stroke-width:1.0;" x1="32.5" x2="272.5" y1="353.0703" y2="353.0703"/><text fill="#000000" font-family="sans-serif" font-size="13" lengthAdjust="spacing" textLength="114" x="44.5" y="348.2139">Return Confirmation</text><!--SRC=[bP312i8m38RlVOgmko_WGQYA80Y2-W9P6sTHqzB5YMzlEzsSkuYtjF-VBt-2Hdm4RQ-E0MlGAc0KPrn05YXMqRCGso9hTog_rJcQSoTYSCgYO8arGR5yLwraIwKqJ6OP05FOquMCK0tRG175UOR38n28XoMX4TUWaEgAbAWlSm2L8OcLvltFoY5LxXm0PDoR4g-vRQ7EQzlSsD3OkpWXLrH_9gHTBGrVNzCslXeJ-fZffpE_xhGZkKM6XUUZYzUNOS3EkxnleN-xy-a6JwsU]--></g></svg>